G04 #@! TF.GenerationSoftware,KiCad,Pcbnew,(6.0.2-0)*
G04 #@! TF.CreationDate,2022-04-26T16:32:33-05:00*
G04 #@! TF.ProjectId,Pi2CM4,50693243-4d34-42e6-9b69-6361645f7063,rev?*
G04 #@! TF.SameCoordinates,Original*
G04 #@! TF.FileFunction,Soldermask,Bot*
G04 #@! TF.FilePolarity,Negative*
%FSLAX46Y46*%
G04 Gerber Fmt 4.6, Leading zero omitted, Abs format (unit mm)*
G04 Created by KiCad (PCBNEW (6.0.2-0)) date 2022-04-26 16:32:33*
%MOMM*%
%LPD*%
G01*
G04 APERTURE LIST*
G04 Aperture macros list*
%AMRoundRect*
0 Rectangle with rounded corners*
0 $1 Rounding radius*
0 $2 $3 $4 $5 $6 $7 $8 $9 X,Y pos of 4 corners*
0 Add a 4 corners polygon primitive as box body*
4,1,4,$2,$3,$4,$5,$6,$7,$8,$9,$2,$3,0*
0 Add four circle primitives for the rounded corners*
1,1,$1+$1,$2,$3*
1,1,$1+$1,$4,$5*
1,1,$1+$1,$6,$7*
1,1,$1+$1,$8,$9*
0 Add four rect primitives between the rounded corners*
20,1,$1+$1,$2,$3,$4,$5,0*
20,1,$1+$1,$4,$5,$6,$7,0*
20,1,$1+$1,$6,$7,$8,$9,0*
20,1,$1+$1,$8,$9,$2,$3,0*%
G04 Aperture macros list end*
%ADD10RoundRect,0.250000X-0.250000X-0.475000X0.250000X-0.475000X0.250000X0.475000X-0.250000X0.475000X0*%
%ADD11RoundRect,0.250000X-1.075000X0.362500X-1.075000X-0.362500X1.075000X-0.362500X1.075000X0.362500X0*%
%ADD12RoundRect,0.250000X-0.362500X-1.075000X0.362500X-1.075000X0.362500X1.075000X-0.362500X1.075000X0*%
%ADD13RoundRect,0.250000X1.075000X-0.362500X1.075000X0.362500X-1.075000X0.362500X-1.075000X-0.362500X0*%
%ADD14RoundRect,0.150000X0.512500X0.150000X-0.512500X0.150000X-0.512500X-0.150000X0.512500X-0.150000X0*%
%ADD15RoundRect,0.150000X0.150000X-0.512500X0.150000X0.512500X-0.150000X0.512500X-0.150000X-0.512500X0*%
%ADD16O,1.500000X2.550000*%
%ADD17RoundRect,0.140000X-0.170000X0.140000X-0.170000X-0.140000X0.170000X-0.140000X0.170000X0.140000X0*%
%ADD18RoundRect,0.135000X-0.135000X-0.185000X0.135000X-0.185000X0.135000X0.185000X-0.135000X0.185000X0*%
%ADD19C,6.000000*%
%ADD20RoundRect,0.250000X0.475000X-0.250000X0.475000X0.250000X-0.475000X0.250000X-0.475000X-0.250000X0*%
%ADD21R,0.900000X1.200000*%
%ADD22RoundRect,0.135000X0.135000X0.185000X-0.135000X0.185000X-0.135000X-0.185000X0.135000X-0.185000X0*%
%ADD23C,3.200000*%
%ADD24RoundRect,0.250500X0.499500X-0.499500X0.499500X0.499500X-0.499500X0.499500X-0.499500X-0.499500X0*%
%ADD25C,1.500000*%
%ADD26C,2.500000*%
%ADD27C,3.450000*%
%ADD28R,1.700000X1.700000*%
%ADD29O,1.700000X1.700000*%
%ADD30C,6.100000*%
%ADD31RoundRect,0.250000X1.100000X-0.325000X1.100000X0.325000X-1.100000X0.325000X-1.100000X-0.325000X0*%
%ADD32O,1.300000X1.700000*%
%ADD33O,1.000000X1.400000*%
%ADD34RoundRect,0.250000X0.250000X0.475000X-0.250000X0.475000X-0.250000X-0.475000X0.250000X-0.475000X0*%
%ADD35RoundRect,0.135000X0.185000X-0.135000X0.185000X0.135000X-0.185000X0.135000X-0.185000X-0.135000X0*%
%ADD36R,1.500000X2.700000*%
%ADD37RoundRect,0.135000X-0.185000X0.135000X-0.185000X-0.135000X0.185000X-0.135000X0.185000X0.135000X0*%
%ADD38RoundRect,0.140000X-0.140000X-0.170000X0.140000X-0.170000X0.140000X0.170000X-0.140000X0.170000X0*%
%ADD39R,1.270000X0.610000*%
%ADD40R,1.020000X0.610000*%
%ADD41R,3.810000X1.650000*%
%ADD42R,1.100000X0.700000*%
%ADD43R,0.930000X0.900000*%
%ADD44R,0.780000X1.050000*%
%ADD45R,3.330000X0.700000*%
%ADD46R,2.800000X0.860000*%
%ADD47R,1.830000X1.140000*%
G04 APERTURE END LIST*
D10*
X63567000Y-45339000D03*
X65467000Y-45339000D03*
D11*
X68072000Y-38708500D03*
X68072000Y-43333500D03*
D12*
X58774500Y-49276000D03*
X63399500Y-49276000D03*
D13*
X71247000Y-38708500D03*
X71247000Y-43333500D03*
D14*
X67812500Y-48453000D03*
X67812500Y-49403000D03*
X67812500Y-50353000D03*
X65537500Y-50353000D03*
X65537500Y-48453000D03*
D15*
X39304000Y-51175500D03*
X38354000Y-51175500D03*
X37404000Y-51175500D03*
X37404000Y-48900500D03*
X39304000Y-48900500D03*
D16*
X62600000Y-71470000D03*
X62600000Y-74830000D03*
X56400000Y-71470000D03*
X56400000Y-74830000D03*
D17*
X50800000Y-49558000D03*
X50800000Y-50518000D03*
D18*
X60704000Y-47117000D03*
X61724000Y-47117000D03*
D19*
X81500000Y-23500000D03*
D20*
X90678000Y-70419000D03*
X90678000Y-68519000D03*
D21*
X61976000Y-37338000D03*
X58676000Y-37338000D03*
D22*
X60836000Y-35560000D03*
X59816000Y-35560000D03*
D23*
X97250000Y-24535000D03*
X97250000Y-35965000D03*
D24*
X88360000Y-35965000D03*
D25*
X90900000Y-34695000D03*
X88360000Y-33425000D03*
X90900000Y-32155000D03*
X88360000Y-30885000D03*
X90900000Y-29615000D03*
X88360000Y-28345000D03*
X90900000Y-27075000D03*
X88360000Y-25805000D03*
X90900000Y-24535000D03*
X93420000Y-35965000D03*
X94690000Y-33425000D03*
X94690000Y-27075000D03*
X93420000Y-24535000D03*
X101310000Y-36880000D03*
X101310000Y-34340000D03*
X101310000Y-26160000D03*
X101310000Y-23620000D03*
D26*
X94200000Y-38125000D03*
X94200000Y-22375000D03*
D20*
X98044000Y-52512000D03*
X98044000Y-50612000D03*
D19*
X81500000Y-72500000D03*
D27*
X92680000Y-42430000D03*
X92680000Y-55570000D03*
X98360000Y-42430000D03*
X98360000Y-55570000D03*
D25*
X95650000Y-45500000D03*
X95650000Y-48000000D03*
X95650000Y-50000000D03*
X95650000Y-52500000D03*
X93030000Y-45500000D03*
X93030000Y-48000000D03*
X93030000Y-50000000D03*
X93030000Y-52500000D03*
D19*
X23500000Y-72500000D03*
D25*
X93030000Y-70500000D03*
X93030000Y-68000000D03*
X93030000Y-66000000D03*
X93030000Y-63500000D03*
X95650000Y-70500000D03*
X95650000Y-68000000D03*
X95650000Y-66000000D03*
X95650000Y-63500000D03*
D27*
X98360000Y-73570000D03*
X98360000Y-60430000D03*
X92680000Y-73570000D03*
X92680000Y-60430000D03*
D16*
X48820000Y-71470000D03*
X48820000Y-74830000D03*
X42620000Y-71470000D03*
X42620000Y-74830000D03*
D17*
X56134000Y-49558000D03*
X56134000Y-50518000D03*
D28*
X38100000Y-71623000D03*
D29*
X38100000Y-74163000D03*
D28*
X87528000Y-71628000D03*
D29*
X87528000Y-74168000D03*
D30*
X30000000Y-64760000D03*
X78000000Y-64760000D03*
X30000000Y-31760000D03*
X78000000Y-31760000D03*
D20*
X90678000Y-52512000D03*
X90678000Y-50612000D03*
D31*
X76962000Y-39829000D03*
X76962000Y-36879000D03*
D20*
X98044000Y-70419000D03*
X98044000Y-68519000D03*
D32*
X28474988Y-75030000D03*
D33*
X28774988Y-72000000D03*
D32*
X33924988Y-75030000D03*
D33*
X33624988Y-72000000D03*
D28*
X24404000Y-28214000D03*
D29*
X21864000Y-28214000D03*
X24404000Y-30754000D03*
X21864000Y-30754000D03*
D19*
X23500000Y-23500000D03*
D22*
X59692000Y-47117000D03*
X58672000Y-47117000D03*
D21*
X61976000Y-45339000D03*
X58676000Y-45339000D03*
D34*
X75626000Y-46101000D03*
X73726000Y-46101000D03*
D28*
X28369997Y-24770001D03*
D29*
X28369997Y-22230001D03*
X30909997Y-24770001D03*
X30909997Y-22230001D03*
X33449997Y-24770001D03*
X33449997Y-22230001D03*
X35989997Y-24770001D03*
X35989997Y-22230001D03*
X38529997Y-24770001D03*
X38529997Y-22230001D03*
X41069997Y-24770001D03*
X41069997Y-22230001D03*
X43609997Y-24770001D03*
X43609997Y-22230001D03*
X46149997Y-24770001D03*
X46149997Y-22230001D03*
X48689997Y-24770001D03*
X48689997Y-22230001D03*
X51229997Y-24770001D03*
X51229997Y-22230001D03*
X53769997Y-24770001D03*
X53769997Y-22230001D03*
X56309997Y-24770001D03*
X56309997Y-22230001D03*
X58849997Y-24770001D03*
X58849997Y-22230001D03*
X61389997Y-24770001D03*
X61389997Y-22230001D03*
X63929997Y-24770001D03*
X63929997Y-22230001D03*
X66469997Y-24770001D03*
X66469997Y-22230001D03*
X69009997Y-24770001D03*
X69009997Y-22230001D03*
X71549997Y-24770001D03*
X71549997Y-22230001D03*
X74089997Y-24770001D03*
X74089997Y-22230001D03*
X76629997Y-24770001D03*
X76629997Y-22230001D03*
D15*
X75626000Y-43936500D03*
X74676000Y-43936500D03*
X73726000Y-43936500D03*
X73726000Y-41661500D03*
X74676000Y-41661500D03*
X75626000Y-41661500D03*
D35*
X74676000Y-40134000D03*
X74676000Y-39114000D03*
D28*
X24404000Y-33294000D03*
D29*
X21864000Y-33294000D03*
X24404000Y-35834000D03*
X21864000Y-35834000D03*
D14*
X54604500Y-49469000D03*
X54604500Y-50419000D03*
X54604500Y-51369000D03*
X52329500Y-51369000D03*
X52329500Y-49469000D03*
D22*
X98810000Y-29718000D03*
X97790000Y-29718000D03*
D36*
X56134000Y-40399000D03*
X51334000Y-40399000D03*
D37*
X60452000Y-59688000D03*
X60452000Y-60708000D03*
D22*
X36324000Y-47244000D03*
X35304000Y-47244000D03*
D34*
X39878000Y-53340000D03*
X37978000Y-53340000D03*
D36*
X51334000Y-43701000D03*
X56134000Y-43701000D03*
D38*
X92992000Y-30734000D03*
X93952000Y-30734000D03*
D39*
X60068000Y-43307000D03*
X60068000Y-42037000D03*
X60068000Y-40767000D03*
X60068000Y-39497000D03*
D40*
X65533000Y-39497000D03*
D41*
X63428000Y-40272000D03*
D40*
X65533000Y-40767000D03*
X65533000Y-42037000D03*
D41*
X63428000Y-42532000D03*
D40*
X65533000Y-43307000D03*
D22*
X36324000Y-42926000D03*
X35304000Y-42926000D03*
D42*
X21440000Y-44780000D03*
X21440000Y-45880000D03*
X21440000Y-46980000D03*
X21440000Y-48080000D03*
X21440000Y-49180000D03*
X21440000Y-50280000D03*
X21440000Y-51380000D03*
X21440000Y-52480000D03*
D43*
X33905000Y-42990000D03*
D44*
X33980000Y-47255000D03*
D45*
X32705000Y-40680000D03*
X32705000Y-53640000D03*
D46*
X21940000Y-53560000D03*
D47*
X21455000Y-40900000D03*
D22*
X98808000Y-28194000D03*
X97788000Y-28194000D03*
D35*
X61722000Y-60708000D03*
X61722000Y-59688000D03*
M02*
