G04 #@! TF.GenerationSoftware,KiCad,Pcbnew,(6.0.2-0)*
G04 #@! TF.CreationDate,2022-04-26T16:32:32-05:00*
G04 #@! TF.ProjectId,Pi2CM4,50693243-4d34-42e6-9b69-6361645f7063,rev?*
G04 #@! TF.SameCoordinates,Original*
G04 #@! TF.FileFunction,Paste,Bot*
G04 #@! TF.FilePolarity,Positive*
%FSLAX46Y46*%
G04 Gerber Fmt 4.6, Leading zero omitted, Abs format (unit mm)*
G04 Created by KiCad (PCBNEW (6.0.2-0)) date 2022-04-26 16:32:32*
%MOMM*%
%LPD*%
G01*
G04 APERTURE LIST*
G04 Aperture macros list*
%AMRoundRect*
0 Rectangle with rounded corners*
0 $1 Rounding radius*
0 $2 $3 $4 $5 $6 $7 $8 $9 X,Y pos of 4 corners*
0 Add a 4 corners polygon primitive as box body*
4,1,4,$2,$3,$4,$5,$6,$7,$8,$9,$2,$3,0*
0 Add four circle primitives for the rounded corners*
1,1,$1+$1,$2,$3*
1,1,$1+$1,$4,$5*
1,1,$1+$1,$6,$7*
1,1,$1+$1,$8,$9*
0 Add four rect primitives between the rounded corners*
20,1,$1+$1,$2,$3,$4,$5,0*
20,1,$1+$1,$4,$5,$6,$7,0*
20,1,$1+$1,$6,$7,$8,$9,0*
20,1,$1+$1,$8,$9,$2,$3,0*%
G04 Aperture macros list end*
%ADD10RoundRect,0.250000X-0.250000X-0.475000X0.250000X-0.475000X0.250000X0.475000X-0.250000X0.475000X0*%
%ADD11RoundRect,0.250000X-1.075000X0.362500X-1.075000X-0.362500X1.075000X-0.362500X1.075000X0.362500X0*%
%ADD12RoundRect,0.250000X-0.362500X-1.075000X0.362500X-1.075000X0.362500X1.075000X-0.362500X1.075000X0*%
%ADD13RoundRect,0.250000X1.075000X-0.362500X1.075000X0.362500X-1.075000X0.362500X-1.075000X-0.362500X0*%
%ADD14RoundRect,0.150000X0.512500X0.150000X-0.512500X0.150000X-0.512500X-0.150000X0.512500X-0.150000X0*%
%ADD15RoundRect,0.150000X0.150000X-0.512500X0.150000X0.512500X-0.150000X0.512500X-0.150000X-0.512500X0*%
%ADD16RoundRect,0.140000X-0.170000X0.140000X-0.170000X-0.140000X0.170000X-0.140000X0.170000X0.140000X0*%
%ADD17RoundRect,0.135000X-0.135000X-0.185000X0.135000X-0.185000X0.135000X0.185000X-0.135000X0.185000X0*%
%ADD18RoundRect,0.250000X0.475000X-0.250000X0.475000X0.250000X-0.475000X0.250000X-0.475000X-0.250000X0*%
%ADD19R,0.900000X1.200000*%
%ADD20RoundRect,0.135000X0.135000X0.185000X-0.135000X0.185000X-0.135000X-0.185000X0.135000X-0.185000X0*%
%ADD21RoundRect,0.250000X1.100000X-0.325000X1.100000X0.325000X-1.100000X0.325000X-1.100000X-0.325000X0*%
%ADD22RoundRect,0.250000X0.250000X0.475000X-0.250000X0.475000X-0.250000X-0.475000X0.250000X-0.475000X0*%
%ADD23RoundRect,0.135000X0.185000X-0.135000X0.185000X0.135000X-0.185000X0.135000X-0.185000X-0.135000X0*%
%ADD24R,1.500000X2.700000*%
%ADD25RoundRect,0.135000X-0.185000X0.135000X-0.185000X-0.135000X0.185000X-0.135000X0.185000X0.135000X0*%
%ADD26RoundRect,0.140000X-0.140000X-0.170000X0.140000X-0.170000X0.140000X0.170000X-0.140000X0.170000X0*%
%ADD27R,1.270000X0.610000*%
%ADD28R,1.020000X0.610000*%
%ADD29R,3.810000X1.650000*%
%ADD30R,1.100000X0.700000*%
%ADD31R,0.930000X0.900000*%
%ADD32R,0.780000X1.050000*%
%ADD33R,3.330000X0.700000*%
%ADD34R,2.800000X0.860000*%
%ADD35R,1.830000X1.140000*%
G04 APERTURE END LIST*
D10*
X63567000Y-45339000D03*
X65467000Y-45339000D03*
D11*
X68072000Y-38708500D03*
X68072000Y-43333500D03*
D12*
X58774500Y-49276000D03*
X63399500Y-49276000D03*
D13*
X71247000Y-38708500D03*
X71247000Y-43333500D03*
D14*
X67812500Y-48453000D03*
X67812500Y-49403000D03*
X67812500Y-50353000D03*
X65537500Y-50353000D03*
X65537500Y-48453000D03*
D15*
X39304000Y-51175500D03*
X38354000Y-51175500D03*
X37404000Y-51175500D03*
X37404000Y-48900500D03*
X39304000Y-48900500D03*
D16*
X50800000Y-49558000D03*
X50800000Y-50518000D03*
D17*
X60704000Y-47117000D03*
X61724000Y-47117000D03*
D18*
X90678000Y-70419000D03*
X90678000Y-68519000D03*
D19*
X61976000Y-37338000D03*
X58676000Y-37338000D03*
D20*
X60836000Y-35560000D03*
X59816000Y-35560000D03*
D18*
X98044000Y-52512000D03*
X98044000Y-50612000D03*
D16*
X56134000Y-49558000D03*
X56134000Y-50518000D03*
D18*
X90678000Y-52512000D03*
X90678000Y-50612000D03*
D21*
X76962000Y-39829000D03*
X76962000Y-36879000D03*
D18*
X98044000Y-70419000D03*
X98044000Y-68519000D03*
D20*
X59692000Y-47117000D03*
X58672000Y-47117000D03*
D19*
X61976000Y-45339000D03*
X58676000Y-45339000D03*
D22*
X75626000Y-46101000D03*
X73726000Y-46101000D03*
D15*
X75626000Y-43936500D03*
X74676000Y-43936500D03*
X73726000Y-43936500D03*
X73726000Y-41661500D03*
X74676000Y-41661500D03*
X75626000Y-41661500D03*
D23*
X74676000Y-40134000D03*
X74676000Y-39114000D03*
D14*
X54604500Y-49469000D03*
X54604500Y-50419000D03*
X54604500Y-51369000D03*
X52329500Y-51369000D03*
X52329500Y-49469000D03*
D20*
X98810000Y-29718000D03*
X97790000Y-29718000D03*
D24*
X56134000Y-40399000D03*
X51334000Y-40399000D03*
D25*
X60452000Y-59688000D03*
X60452000Y-60708000D03*
D20*
X36324000Y-47244000D03*
X35304000Y-47244000D03*
D22*
X39878000Y-53340000D03*
X37978000Y-53340000D03*
D24*
X51334000Y-43701000D03*
X56134000Y-43701000D03*
D26*
X92992000Y-30734000D03*
X93952000Y-30734000D03*
D27*
X60068000Y-43307000D03*
X60068000Y-42037000D03*
X60068000Y-40767000D03*
X60068000Y-39497000D03*
D28*
X65533000Y-39497000D03*
D29*
X63428000Y-40272000D03*
D28*
X65533000Y-40767000D03*
X65533000Y-42037000D03*
D29*
X63428000Y-42532000D03*
D28*
X65533000Y-43307000D03*
D20*
X36324000Y-42926000D03*
X35304000Y-42926000D03*
D30*
X21440000Y-44780000D03*
X21440000Y-45880000D03*
X21440000Y-46980000D03*
X21440000Y-48080000D03*
X21440000Y-49180000D03*
X21440000Y-50280000D03*
X21440000Y-51380000D03*
X21440000Y-52480000D03*
D31*
X33905000Y-42990000D03*
D32*
X33980000Y-47255000D03*
D33*
X32705000Y-40680000D03*
X32705000Y-53640000D03*
D34*
X21940000Y-53560000D03*
D35*
X21455000Y-40900000D03*
D20*
X98808000Y-28194000D03*
X97788000Y-28194000D03*
D23*
X61722000Y-60708000D03*
X61722000Y-59688000D03*
M02*
