G04 #@! TF.GenerationSoftware,KiCad,Pcbnew,(6.0.2-0)*
G04 #@! TF.CreationDate,2022-04-26T16:32:32-05:00*
G04 #@! TF.ProjectId,Pi2CM4,50693243-4d34-42e6-9b69-6361645f7063,rev?*
G04 #@! TF.SameCoordinates,Original*
G04 #@! TF.FileFunction,Legend,Bot*
G04 #@! TF.FilePolarity,Positive*
%FSLAX46Y46*%
G04 Gerber Fmt 4.6, Leading zero omitted, Abs format (unit mm)*
G04 Created by KiCad (PCBNEW (6.0.2-0)) date 2022-04-26 16:32:32*
%MOMM*%
%LPD*%
G01*
G04 APERTURE LIST*
G04 Aperture macros list*
%AMRoundRect*
0 Rectangle with rounded corners*
0 $1 Rounding radius*
0 $2 $3 $4 $5 $6 $7 $8 $9 X,Y pos of 4 corners*
0 Add a 4 corners polygon primitive as box body*
4,1,4,$2,$3,$4,$5,$6,$7,$8,$9,$2,$3,0*
0 Add four circle primitives for the rounded corners*
1,1,$1+$1,$2,$3*
1,1,$1+$1,$4,$5*
1,1,$1+$1,$6,$7*
1,1,$1+$1,$8,$9*
0 Add four rect primitives between the rounded corners*
20,1,$1+$1,$2,$3,$4,$5,0*
20,1,$1+$1,$4,$5,$6,$7,0*
20,1,$1+$1,$6,$7,$8,$9,0*
20,1,$1+$1,$8,$9,$2,$3,0*%
G04 Aperture macros list end*
%ADD10C,0.177800*%
%ADD11C,0.508000*%
%ADD12RoundRect,0.250000X-0.250000X-0.475000X0.250000X-0.475000X0.250000X0.475000X-0.250000X0.475000X0*%
%ADD13RoundRect,0.250000X-1.075000X0.362500X-1.075000X-0.362500X1.075000X-0.362500X1.075000X0.362500X0*%
%ADD14RoundRect,0.250000X-0.362500X-1.075000X0.362500X-1.075000X0.362500X1.075000X-0.362500X1.075000X0*%
%ADD15RoundRect,0.250000X1.075000X-0.362500X1.075000X0.362500X-1.075000X0.362500X-1.075000X-0.362500X0*%
%ADD16RoundRect,0.150000X0.512500X0.150000X-0.512500X0.150000X-0.512500X-0.150000X0.512500X-0.150000X0*%
%ADD17RoundRect,0.150000X0.150000X-0.512500X0.150000X0.512500X-0.150000X0.512500X-0.150000X-0.512500X0*%
%ADD18O,1.500000X2.550000*%
%ADD19RoundRect,0.140000X-0.170000X0.140000X-0.170000X-0.140000X0.170000X-0.140000X0.170000X0.140000X0*%
%ADD20RoundRect,0.135000X-0.135000X-0.185000X0.135000X-0.185000X0.135000X0.185000X-0.135000X0.185000X0*%
%ADD21C,6.000000*%
%ADD22RoundRect,0.250000X0.475000X-0.250000X0.475000X0.250000X-0.475000X0.250000X-0.475000X-0.250000X0*%
%ADD23R,0.900000X1.200000*%
%ADD24RoundRect,0.135000X0.135000X0.185000X-0.135000X0.185000X-0.135000X-0.185000X0.135000X-0.185000X0*%
%ADD25C,3.200000*%
%ADD26RoundRect,0.250500X0.499500X-0.499500X0.499500X0.499500X-0.499500X0.499500X-0.499500X-0.499500X0*%
%ADD27C,1.500000*%
%ADD28C,2.500000*%
%ADD29C,3.450000*%
%ADD30R,1.700000X1.700000*%
%ADD31O,1.700000X1.700000*%
%ADD32C,6.100000*%
%ADD33RoundRect,0.250000X1.100000X-0.325000X1.100000X0.325000X-1.100000X0.325000X-1.100000X-0.325000X0*%
%ADD34O,1.300000X1.700000*%
%ADD35O,1.000000X1.400000*%
%ADD36RoundRect,0.250000X0.250000X0.475000X-0.250000X0.475000X-0.250000X-0.475000X0.250000X-0.475000X0*%
%ADD37RoundRect,0.135000X0.185000X-0.135000X0.185000X0.135000X-0.185000X0.135000X-0.185000X-0.135000X0*%
%ADD38R,1.500000X2.700000*%
%ADD39RoundRect,0.135000X-0.185000X0.135000X-0.185000X-0.135000X0.185000X-0.135000X0.185000X0.135000X0*%
%ADD40RoundRect,0.140000X-0.140000X-0.170000X0.140000X-0.170000X0.140000X0.170000X-0.140000X0.170000X0*%
%ADD41R,1.270000X0.610000*%
%ADD42R,1.020000X0.610000*%
%ADD43R,3.810000X1.650000*%
%ADD44R,1.100000X0.700000*%
%ADD45R,0.930000X0.900000*%
%ADD46R,0.780000X1.050000*%
%ADD47R,3.330000X0.700000*%
%ADD48R,2.800000X0.860000*%
%ADD49R,1.830000X1.140000*%
G04 APERTURE END LIST*
D10*
X73341230Y-62311026D02*
X73188830Y-62361826D01*
X72934830Y-62361826D01*
X72833230Y-62311026D01*
X72782430Y-62260226D01*
X72731630Y-62158626D01*
X72731630Y-62057026D01*
X72782430Y-61955426D01*
X72833230Y-61904626D01*
X72934830Y-61853826D01*
X73138030Y-61803026D01*
X73239630Y-61752226D01*
X73290430Y-61701426D01*
X73341230Y-61599826D01*
X73341230Y-61498226D01*
X73290430Y-61396626D01*
X73239630Y-61345826D01*
X73138030Y-61295026D01*
X72884030Y-61295026D01*
X72731630Y-61345826D01*
X72274430Y-61650626D02*
X72274430Y-62717426D01*
X72274430Y-61701426D02*
X72172830Y-61650626D01*
X71969630Y-61650626D01*
X71868030Y-61701426D01*
X71817230Y-61752226D01*
X71766430Y-61853826D01*
X71766430Y-62158626D01*
X71817230Y-62260226D01*
X71868030Y-62311026D01*
X71969630Y-62361826D01*
X72172830Y-62361826D01*
X72274430Y-62311026D01*
X71309230Y-62361826D02*
X71309230Y-61650626D01*
X71309230Y-61853826D02*
X71258430Y-61752226D01*
X71207630Y-61701426D01*
X71106030Y-61650626D01*
X71004430Y-61650626D01*
X70648830Y-62361826D02*
X70648830Y-61650626D01*
X70648830Y-61295026D02*
X70699630Y-61345826D01*
X70648830Y-61396626D01*
X70598030Y-61345826D01*
X70648830Y-61295026D01*
X70648830Y-61396626D01*
X70140830Y-61650626D02*
X70140830Y-62361826D01*
X70140830Y-61752226D02*
X70090030Y-61701426D01*
X69988430Y-61650626D01*
X69836030Y-61650626D01*
X69734430Y-61701426D01*
X69683630Y-61803026D01*
X69683630Y-62361826D01*
X68718430Y-61650626D02*
X68718430Y-62514226D01*
X68769230Y-62615826D01*
X68820030Y-62666626D01*
X68921630Y-62717426D01*
X69074030Y-62717426D01*
X69175630Y-62666626D01*
X68718430Y-62311026D02*
X68820030Y-62361826D01*
X69023230Y-62361826D01*
X69124830Y-62311026D01*
X69175630Y-62260226D01*
X69226430Y-62158626D01*
X69226430Y-61853826D01*
X69175630Y-61752226D01*
X69124830Y-61701426D01*
X69023230Y-61650626D01*
X68820030Y-61650626D01*
X68718430Y-61701426D01*
X67448430Y-61396626D02*
X67397630Y-61345826D01*
X67296030Y-61295026D01*
X67042030Y-61295026D01*
X66940430Y-61345826D01*
X66889630Y-61396626D01*
X66838830Y-61498226D01*
X66838830Y-61599826D01*
X66889630Y-61752226D01*
X67499230Y-62361826D01*
X66838830Y-62361826D01*
X66178430Y-61295026D02*
X66076830Y-61295026D01*
X65975230Y-61345826D01*
X65924430Y-61396626D01*
X65873630Y-61498226D01*
X65822830Y-61701426D01*
X65822830Y-61955426D01*
X65873630Y-62158626D01*
X65924430Y-62260226D01*
X65975230Y-62311026D01*
X66076830Y-62361826D01*
X66178430Y-62361826D01*
X66280030Y-62311026D01*
X66330830Y-62260226D01*
X66381630Y-62158626D01*
X66432430Y-61955426D01*
X66432430Y-61701426D01*
X66381630Y-61498226D01*
X66330830Y-61396626D01*
X66280030Y-61345826D01*
X66178430Y-61295026D01*
X65416430Y-61396626D02*
X65365630Y-61345826D01*
X65264030Y-61295026D01*
X65010030Y-61295026D01*
X64908430Y-61345826D01*
X64857630Y-61396626D01*
X64806830Y-61498226D01*
X64806830Y-61599826D01*
X64857630Y-61752226D01*
X65467230Y-62361826D01*
X64806830Y-62361826D01*
X64400430Y-61396626D02*
X64349630Y-61345826D01*
X64248030Y-61295026D01*
X63994030Y-61295026D01*
X63892430Y-61345826D01*
X63841630Y-61396626D01*
X63790830Y-61498226D01*
X63790830Y-61599826D01*
X63841630Y-61752226D01*
X64451230Y-62361826D01*
X63790830Y-62361826D01*
X72833230Y-63368174D02*
X72833230Y-64231774D01*
X72884030Y-64333374D01*
X72934830Y-64384174D01*
X73036430Y-64434974D01*
X73188830Y-64434974D01*
X73290430Y-64384174D01*
X72833230Y-64028574D02*
X72934830Y-64079374D01*
X73138030Y-64079374D01*
X73239630Y-64028574D01*
X73290430Y-63977774D01*
X73341230Y-63876174D01*
X73341230Y-63571374D01*
X73290430Y-63469774D01*
X73239630Y-63418974D01*
X73138030Y-63368174D01*
X72934830Y-63368174D01*
X72833230Y-63418974D01*
X72325230Y-64079374D02*
X72325230Y-63368174D01*
X72325230Y-63012574D02*
X72376030Y-63063374D01*
X72325230Y-63114174D01*
X72274430Y-63063374D01*
X72325230Y-63012574D01*
X72325230Y-63114174D01*
X71969630Y-63368174D02*
X71563230Y-63368174D01*
X71817230Y-63012574D02*
X71817230Y-63926974D01*
X71766430Y-64028574D01*
X71664830Y-64079374D01*
X71563230Y-64079374D01*
X71207630Y-64079374D02*
X71207630Y-63012574D01*
X70750430Y-64079374D02*
X70750430Y-63520574D01*
X70801230Y-63418974D01*
X70902830Y-63368174D01*
X71055230Y-63368174D01*
X71156830Y-63418974D01*
X71207630Y-63469774D01*
X69785230Y-63368174D02*
X69785230Y-64079374D01*
X70242430Y-63368174D02*
X70242430Y-63926974D01*
X70191630Y-64028574D01*
X70090030Y-64079374D01*
X69937630Y-64079374D01*
X69836030Y-64028574D01*
X69785230Y-63977774D01*
X69277230Y-64079374D02*
X69277230Y-63012574D01*
X69277230Y-63418974D02*
X69175630Y-63368174D01*
X68972430Y-63368174D01*
X68870830Y-63418974D01*
X68820030Y-63469774D01*
X68769230Y-63571374D01*
X68769230Y-63876174D01*
X68820030Y-63977774D01*
X68870830Y-64028574D01*
X68972430Y-64079374D01*
X69175630Y-64079374D01*
X69277230Y-64028574D01*
X68312030Y-63977774D02*
X68261230Y-64028574D01*
X68312030Y-64079374D01*
X68362830Y-64028574D01*
X68312030Y-63977774D01*
X68312030Y-64079374D01*
X67346830Y-64028574D02*
X67448430Y-64079374D01*
X67651630Y-64079374D01*
X67753230Y-64028574D01*
X67804030Y-63977774D01*
X67854830Y-63876174D01*
X67854830Y-63571374D01*
X67804030Y-63469774D01*
X67753230Y-63418974D01*
X67651630Y-63368174D01*
X67448430Y-63368174D01*
X67346830Y-63418974D01*
X66737230Y-64079374D02*
X66838830Y-64028574D01*
X66889630Y-63977774D01*
X66940430Y-63876174D01*
X66940430Y-63571374D01*
X66889630Y-63469774D01*
X66838830Y-63418974D01*
X66737230Y-63368174D01*
X66584830Y-63368174D01*
X66483230Y-63418974D01*
X66432430Y-63469774D01*
X66381630Y-63571374D01*
X66381630Y-63876174D01*
X66432430Y-63977774D01*
X66483230Y-64028574D01*
X66584830Y-64079374D01*
X66737230Y-64079374D01*
X65924430Y-64079374D02*
X65924430Y-63368174D01*
X65924430Y-63469774D02*
X65873630Y-63418974D01*
X65772030Y-63368174D01*
X65619630Y-63368174D01*
X65518030Y-63418974D01*
X65467230Y-63520574D01*
X65467230Y-64079374D01*
X65467230Y-63520574D02*
X65416430Y-63418974D01*
X65314830Y-63368174D01*
X65162430Y-63368174D01*
X65060830Y-63418974D01*
X65010030Y-63520574D01*
X65010030Y-64079374D01*
X63740030Y-62961774D02*
X64654430Y-64333374D01*
X63536830Y-63368174D02*
X63130430Y-63368174D01*
X63384430Y-63012574D02*
X63384430Y-63926974D01*
X63333630Y-64028574D01*
X63232030Y-64079374D01*
X63130430Y-64079374D01*
X62774830Y-64079374D02*
X62774830Y-63012574D01*
X62317630Y-64079374D02*
X62317630Y-63520574D01*
X62368430Y-63418974D01*
X62470030Y-63368174D01*
X62622430Y-63368174D01*
X62724030Y-63418974D01*
X62774830Y-63469774D01*
X61352430Y-64079374D02*
X61352430Y-63520574D01*
X61403230Y-63418974D01*
X61504830Y-63368174D01*
X61708030Y-63368174D01*
X61809630Y-63418974D01*
X61352430Y-64028574D02*
X61454030Y-64079374D01*
X61708030Y-64079374D01*
X61809630Y-64028574D01*
X61860430Y-63926974D01*
X61860430Y-63825374D01*
X61809630Y-63723774D01*
X61708030Y-63672974D01*
X61454030Y-63672974D01*
X61352430Y-63622174D01*
X60844430Y-63368174D02*
X60844430Y-64079374D01*
X60844430Y-63469774D02*
X60793630Y-63418974D01*
X60692030Y-63368174D01*
X60539630Y-63368174D01*
X60438030Y-63418974D01*
X60387230Y-63520574D01*
X60387230Y-64079374D01*
X59422030Y-64079374D02*
X59422030Y-63520574D01*
X59472830Y-63418974D01*
X59574430Y-63368174D01*
X59777630Y-63368174D01*
X59879230Y-63418974D01*
X59422030Y-64028574D02*
X59523630Y-64079374D01*
X59777630Y-64079374D01*
X59879230Y-64028574D01*
X59930030Y-63926974D01*
X59930030Y-63825374D01*
X59879230Y-63723774D01*
X59777630Y-63672974D01*
X59523630Y-63672974D01*
X59422030Y-63622174D01*
X58964830Y-64028574D02*
X58863230Y-64079374D01*
X58660030Y-64079374D01*
X58558430Y-64028574D01*
X58507630Y-63926974D01*
X58507630Y-63876174D01*
X58558430Y-63774574D01*
X58660030Y-63723774D01*
X58812430Y-63723774D01*
X58914030Y-63672974D01*
X58964830Y-63571374D01*
X58964830Y-63520574D01*
X58914030Y-63418974D01*
X58812430Y-63368174D01*
X58660030Y-63368174D01*
X58558430Y-63418974D01*
X58050430Y-64079374D02*
X58050430Y-63368174D01*
X58050430Y-63012574D02*
X58101230Y-63063374D01*
X58050430Y-63114174D01*
X57999630Y-63063374D01*
X58050430Y-63012574D01*
X58050430Y-63114174D01*
X57542430Y-63368174D02*
X57542430Y-64434974D01*
X57542430Y-63418974D02*
X57440830Y-63368174D01*
X57237630Y-63368174D01*
X57136030Y-63418974D01*
X57085230Y-63469774D01*
X57034430Y-63571374D01*
X57034430Y-63876174D01*
X57085230Y-63977774D01*
X57136030Y-64028574D01*
X57237630Y-64079374D01*
X57440830Y-64079374D01*
X57542430Y-64028574D01*
X56120030Y-64079374D02*
X56120030Y-63520574D01*
X56170830Y-63418974D01*
X56272430Y-63368174D01*
X56475630Y-63368174D01*
X56577230Y-63418974D01*
X56120030Y-64028574D02*
X56221630Y-64079374D01*
X56475630Y-64079374D01*
X56577230Y-64028574D01*
X56628030Y-63926974D01*
X56628030Y-63825374D01*
X56577230Y-63723774D01*
X56475630Y-63672974D01*
X56221630Y-63672974D01*
X56120030Y-63622174D01*
X55612030Y-63368174D02*
X55612030Y-64079374D01*
X55612030Y-63469774D02*
X55561230Y-63418974D01*
X55459630Y-63368174D01*
X55307230Y-63368174D01*
X55205630Y-63418974D01*
X55154830Y-63520574D01*
X55154830Y-64079374D01*
X54799230Y-63368174D02*
X54392830Y-63368174D01*
X54646830Y-63012574D02*
X54646830Y-63926974D01*
X54596030Y-64028574D01*
X54494430Y-64079374D01*
X54392830Y-64079374D01*
X53580030Y-64079374D02*
X53580030Y-63520574D01*
X53630830Y-63418974D01*
X53732430Y-63368174D01*
X53935630Y-63368174D01*
X54037230Y-63418974D01*
X53580030Y-64028574D02*
X53681630Y-64079374D01*
X53935630Y-64079374D01*
X54037230Y-64028574D01*
X54088030Y-63926974D01*
X54088030Y-63825374D01*
X54037230Y-63723774D01*
X53935630Y-63672974D01*
X53681630Y-63672974D01*
X53580030Y-63622174D01*
X53173630Y-63368174D02*
X52614830Y-63368174D01*
X53173630Y-64079374D01*
X52614830Y-64079374D01*
X52208430Y-64079374D02*
X52208430Y-63368174D01*
X52208430Y-63012574D02*
X52259230Y-63063374D01*
X52208430Y-63114174D01*
X52157630Y-63063374D01*
X52208430Y-63012574D01*
X52208430Y-63114174D01*
X51243230Y-64079374D02*
X51243230Y-63012574D01*
X51243230Y-64028574D02*
X51344830Y-64079374D01*
X51548030Y-64079374D01*
X51649630Y-64028574D01*
X51700430Y-63977774D01*
X51751230Y-63876174D01*
X51751230Y-63571374D01*
X51700430Y-63469774D01*
X51649630Y-63418974D01*
X51548030Y-63368174D01*
X51344830Y-63368174D01*
X51243230Y-63418974D01*
X50328830Y-64028574D02*
X50430430Y-64079374D01*
X50633630Y-64079374D01*
X50735230Y-64028574D01*
X50786030Y-63926974D01*
X50786030Y-63520574D01*
X50735230Y-63418974D01*
X50633630Y-63368174D01*
X50430430Y-63368174D01*
X50328830Y-63418974D01*
X50278030Y-63520574D01*
X50278030Y-63622174D01*
X50786030Y-63723774D01*
X49871630Y-64028574D02*
X49770030Y-64079374D01*
X49566830Y-64079374D01*
X49465230Y-64028574D01*
X49414430Y-63926974D01*
X49414430Y-63876174D01*
X49465230Y-63774574D01*
X49566830Y-63723774D01*
X49719230Y-63723774D01*
X49820830Y-63672974D01*
X49871630Y-63571374D01*
X49871630Y-63520574D01*
X49820830Y-63418974D01*
X49719230Y-63368174D01*
X49566830Y-63368174D01*
X49465230Y-63418974D01*
D11*
X81091919Y-60458047D02*
X80774419Y-57918047D01*
X79806800Y-57918047D01*
X79580014Y-58039000D01*
X79474180Y-58159952D01*
X79383466Y-58401857D01*
X79428823Y-58764714D01*
X79580014Y-59006619D01*
X79716085Y-59127571D01*
X79973109Y-59248523D01*
X80940728Y-59248523D01*
X78551919Y-60458047D02*
X78340252Y-58764714D01*
X78234419Y-57918047D02*
X78370490Y-58039000D01*
X78264657Y-58159952D01*
X78128585Y-58039000D01*
X78234419Y-57918047D01*
X78264657Y-58159952D01*
X77176085Y-58159952D02*
X77040014Y-58039000D01*
X76782990Y-57918047D01*
X76178228Y-57918047D01*
X75951442Y-58039000D01*
X75845609Y-58159952D01*
X75754895Y-58401857D01*
X75785133Y-58643761D01*
X75951442Y-59006619D01*
X77584300Y-60458047D01*
X76011919Y-60458047D01*
X73441680Y-60216142D02*
X73577752Y-60337095D01*
X73955728Y-60458047D01*
X74197633Y-60458047D01*
X74545371Y-60337095D01*
X74757038Y-60095190D01*
X74847752Y-59853285D01*
X74908228Y-59369476D01*
X74862871Y-59006619D01*
X74681442Y-58522809D01*
X74530252Y-58280904D01*
X74258109Y-58039000D01*
X73880133Y-57918047D01*
X73638228Y-57918047D01*
X73290490Y-58039000D01*
X73184657Y-58159952D01*
X72383347Y-60458047D02*
X72065847Y-57918047D01*
X71445966Y-59732333D01*
X70372514Y-57918047D01*
X70690014Y-60458047D01*
X68180252Y-58764714D02*
X68391919Y-60458047D01*
X68664061Y-57797095D02*
X69495609Y-59611380D01*
X67923228Y-59611380D01*
D10*
X68503800Y-45847000D02*
X68554600Y-45897800D01*
X68707000Y-45948600D01*
X68808600Y-45948600D01*
X68961000Y-45897800D01*
X69062600Y-45796200D01*
X69113400Y-45694600D01*
X69164200Y-45491400D01*
X69164200Y-45339000D01*
X69113400Y-45135800D01*
X69062600Y-45034200D01*
X68961000Y-44932600D01*
X68808600Y-44881800D01*
X68707000Y-44881800D01*
X68554600Y-44932600D01*
X68503800Y-44983400D01*
X67487800Y-45948600D02*
X68097400Y-45948600D01*
X67792600Y-45948600D02*
X67792600Y-44881800D01*
X67894200Y-45034200D01*
X67995800Y-45135800D01*
X68097400Y-45186600D01*
X66979800Y-45948600D02*
X66776600Y-45948600D01*
X66675000Y-45897800D01*
X66624200Y-45847000D01*
X66522600Y-45694600D01*
X66471800Y-45491400D01*
X66471800Y-45085000D01*
X66522600Y-44983400D01*
X66573400Y-44932600D01*
X66675000Y-44881800D01*
X66878200Y-44881800D01*
X66979800Y-44932600D01*
X67030600Y-44983400D01*
X67081400Y-45085000D01*
X67081400Y-45339000D01*
X67030600Y-45440600D01*
X66979800Y-45491400D01*
X66878200Y-45542200D01*
X66675000Y-45542200D01*
X66573400Y-45491400D01*
X66522600Y-45440600D01*
X66471800Y-45339000D01*
X68554600Y-35636200D02*
X68046600Y-35280600D01*
X68554600Y-35026600D02*
X67487800Y-35026600D01*
X67487800Y-35433000D01*
X67538600Y-35534600D01*
X67589400Y-35585400D01*
X67691000Y-35636200D01*
X67843400Y-35636200D01*
X67945000Y-35585400D01*
X67995800Y-35534600D01*
X68046600Y-35433000D01*
X68046600Y-35026600D01*
X67589400Y-36042600D02*
X67538600Y-36093400D01*
X67487800Y-36195000D01*
X67487800Y-36449000D01*
X67538600Y-36550600D01*
X67589400Y-36601400D01*
X67691000Y-36652200D01*
X67792600Y-36652200D01*
X67945000Y-36601400D01*
X68554600Y-35991800D01*
X68554600Y-36652200D01*
X68554600Y-37668200D02*
X68554600Y-37058600D01*
X68554600Y-37363400D02*
X67487800Y-37363400D01*
X67640200Y-37261800D01*
X67741800Y-37160200D01*
X67792600Y-37058600D01*
X61772800Y-52038600D02*
X62128400Y-51530600D01*
X62382400Y-52038600D02*
X62382400Y-50971800D01*
X61976000Y-50971800D01*
X61874400Y-51022600D01*
X61823600Y-51073400D01*
X61772800Y-51175000D01*
X61772800Y-51327400D01*
X61823600Y-51429000D01*
X61874400Y-51479800D01*
X61976000Y-51530600D01*
X62382400Y-51530600D01*
X61366400Y-51073400D02*
X61315600Y-51022600D01*
X61214000Y-50971800D01*
X60960000Y-50971800D01*
X60858400Y-51022600D01*
X60807600Y-51073400D01*
X60756800Y-51175000D01*
X60756800Y-51276600D01*
X60807600Y-51429000D01*
X61417200Y-52038600D01*
X60756800Y-52038600D01*
X60096400Y-50971800D02*
X59994800Y-50971800D01*
X59893200Y-51022600D01*
X59842400Y-51073400D01*
X59791600Y-51175000D01*
X59740800Y-51378200D01*
X59740800Y-51632200D01*
X59791600Y-51835400D01*
X59842400Y-51937000D01*
X59893200Y-51987800D01*
X59994800Y-52038600D01*
X60096400Y-52038600D01*
X60198000Y-51987800D01*
X60248800Y-51937000D01*
X60299600Y-51835400D01*
X60350400Y-51632200D01*
X60350400Y-51378200D01*
X60299600Y-51175000D01*
X60248800Y-51073400D01*
X60198000Y-51022600D01*
X60096400Y-50971800D01*
X71729600Y-35001200D02*
X71221600Y-34645600D01*
X71729600Y-34391600D02*
X70662800Y-34391600D01*
X70662800Y-34798000D01*
X70713600Y-34899600D01*
X70764400Y-34950400D01*
X70866000Y-35001200D01*
X71018400Y-35001200D01*
X71120000Y-34950400D01*
X71170800Y-34899600D01*
X71221600Y-34798000D01*
X71221600Y-34391600D01*
X71729600Y-36017200D02*
X71729600Y-35407600D01*
X71729600Y-35712400D02*
X70662800Y-35712400D01*
X70815200Y-35610800D01*
X70916800Y-35509200D01*
X70967600Y-35407600D01*
X71120000Y-36626800D02*
X71069200Y-36525200D01*
X71018400Y-36474400D01*
X70916800Y-36423600D01*
X70866000Y-36423600D01*
X70764400Y-36474400D01*
X70713600Y-36525200D01*
X70662800Y-36626800D01*
X70662800Y-36830000D01*
X70713600Y-36931600D01*
X70764400Y-36982400D01*
X70866000Y-37033200D01*
X70916800Y-37033200D01*
X71018400Y-36982400D01*
X71069200Y-36931600D01*
X71120000Y-36830000D01*
X71120000Y-36626800D01*
X71170800Y-36525200D01*
X71221600Y-36474400D01*
X71323200Y-36423600D01*
X71526400Y-36423600D01*
X71628000Y-36474400D01*
X71678800Y-36525200D01*
X71729600Y-36626800D01*
X71729600Y-36830000D01*
X71678800Y-36931600D01*
X71628000Y-36982400D01*
X71526400Y-37033200D01*
X71323200Y-37033200D01*
X71221600Y-36982400D01*
X71170800Y-36931600D01*
X71120000Y-36830000D01*
X68630800Y-46405800D02*
X68630800Y-47269400D01*
X68580000Y-47371000D01*
X68529200Y-47421800D01*
X68427600Y-47472600D01*
X68224400Y-47472600D01*
X68122800Y-47421800D01*
X68072000Y-47371000D01*
X68021200Y-47269400D01*
X68021200Y-46405800D01*
X66954400Y-47472600D02*
X67564000Y-47472600D01*
X67259200Y-47472600D02*
X67259200Y-46405800D01*
X67360800Y-46558200D01*
X67462400Y-46659800D01*
X67564000Y-46710600D01*
X66294000Y-46405800D02*
X66192400Y-46405800D01*
X66090800Y-46456600D01*
X66040000Y-46507400D01*
X65989200Y-46609000D01*
X65938400Y-46812200D01*
X65938400Y-47066200D01*
X65989200Y-47269400D01*
X66040000Y-47371000D01*
X66090800Y-47421800D01*
X66192400Y-47472600D01*
X66294000Y-47472600D01*
X66395600Y-47421800D01*
X66446400Y-47371000D01*
X66497200Y-47269400D01*
X66548000Y-47066200D01*
X66548000Y-46812200D01*
X66497200Y-46609000D01*
X66446400Y-46507400D01*
X66395600Y-46456600D01*
X66294000Y-46405800D01*
X40309800Y-49225200D02*
X41173400Y-49225200D01*
X41275000Y-49276000D01*
X41325800Y-49326800D01*
X41376600Y-49428400D01*
X41376600Y-49631600D01*
X41325800Y-49733200D01*
X41275000Y-49784000D01*
X41173400Y-49834800D01*
X40309800Y-49834800D01*
X40411400Y-50292000D02*
X40360600Y-50342800D01*
X40309800Y-50444400D01*
X40309800Y-50698400D01*
X40360600Y-50800000D01*
X40411400Y-50850800D01*
X40513000Y-50901600D01*
X40614600Y-50901600D01*
X40767000Y-50850800D01*
X41376600Y-50241200D01*
X41376600Y-50901600D01*
X51054000Y-51968700D02*
X51104800Y-51917900D01*
X51155600Y-51765500D01*
X51155600Y-51663900D01*
X51104800Y-51511500D01*
X51003200Y-51409900D01*
X50901600Y-51359100D01*
X50698400Y-51308300D01*
X50546000Y-51308300D01*
X50342800Y-51359100D01*
X50241200Y-51409900D01*
X50139600Y-51511500D01*
X50088800Y-51663900D01*
X50088800Y-51765500D01*
X50139600Y-51917900D01*
X50190400Y-51968700D01*
X50190400Y-52375100D02*
X50139600Y-52425900D01*
X50088800Y-52527500D01*
X50088800Y-52781500D01*
X50139600Y-52883100D01*
X50190400Y-52933900D01*
X50292000Y-52984700D01*
X50393600Y-52984700D01*
X50546000Y-52933900D01*
X51155600Y-52324300D01*
X51155600Y-52984700D01*
X50088800Y-53645100D02*
X50088800Y-53746700D01*
X50139600Y-53848300D01*
X50190400Y-53899100D01*
X50292000Y-53949900D01*
X50495200Y-54000700D01*
X50749200Y-54000700D01*
X50952400Y-53949900D01*
X51054000Y-53899100D01*
X51104800Y-53848300D01*
X51155600Y-53746700D01*
X51155600Y-53645100D01*
X51104800Y-53543500D01*
X51054000Y-53492700D01*
X50952400Y-53441900D01*
X50749200Y-53391100D01*
X50495200Y-53391100D01*
X50292000Y-53441900D01*
X50190400Y-53492700D01*
X50139600Y-53543500D01*
X50088800Y-53645100D01*
X64693800Y-47599600D02*
X65049400Y-47091600D01*
X65303400Y-47599600D02*
X65303400Y-46532800D01*
X64897000Y-46532800D01*
X64795400Y-46583600D01*
X64744600Y-46634400D01*
X64693800Y-46736000D01*
X64693800Y-46888400D01*
X64744600Y-46990000D01*
X64795400Y-47040800D01*
X64897000Y-47091600D01*
X65303400Y-47091600D01*
X63677800Y-47599600D02*
X64287400Y-47599600D01*
X63982600Y-47599600D02*
X63982600Y-46532800D01*
X64084200Y-46685200D01*
X64185800Y-46786800D01*
X64287400Y-46837600D01*
X63169800Y-47599600D02*
X62966600Y-47599600D01*
X62865000Y-47548800D01*
X62814200Y-47498000D01*
X62712600Y-47345600D01*
X62661800Y-47142400D01*
X62661800Y-46736000D01*
X62712600Y-46634400D01*
X62763400Y-46583600D01*
X62865000Y-46532800D01*
X63068200Y-46532800D01*
X63169800Y-46583600D01*
X63220600Y-46634400D01*
X63271400Y-46736000D01*
X63271400Y-46990000D01*
X63220600Y-47091600D01*
X63169800Y-47142400D01*
X63068200Y-47193200D01*
X62865000Y-47193200D01*
X62763400Y-47142400D01*
X62712600Y-47091600D01*
X62661800Y-46990000D01*
X85267800Y-27787600D02*
X85267800Y-26720800D01*
X85267800Y-27228800D02*
X84658200Y-27228800D01*
X84658200Y-27787600D02*
X84658200Y-26720800D01*
X83693000Y-27076400D02*
X83693000Y-27787600D01*
X83947000Y-26670000D02*
X84201000Y-27432000D01*
X83540600Y-27432000D01*
X91059000Y-65472730D02*
X91109800Y-65421930D01*
X91160600Y-65269530D01*
X91160600Y-65167930D01*
X91109800Y-65015530D01*
X91008200Y-64913930D01*
X90906600Y-64863130D01*
X90703400Y-64812330D01*
X90551000Y-64812330D01*
X90347800Y-64863130D01*
X90246200Y-64913930D01*
X90144600Y-65015530D01*
X90093800Y-65167930D01*
X90093800Y-65269530D01*
X90144600Y-65421930D01*
X90195400Y-65472730D01*
X91160600Y-66488730D02*
X91160600Y-65879130D01*
X91160600Y-66183930D02*
X90093800Y-66183930D01*
X90246200Y-66082330D01*
X90347800Y-65980730D01*
X90398600Y-65879130D01*
X90551000Y-67098330D02*
X90500200Y-66996730D01*
X90449400Y-66945930D01*
X90347800Y-66895130D01*
X90297000Y-66895130D01*
X90195400Y-66945930D01*
X90144600Y-66996730D01*
X90093800Y-67098330D01*
X90093800Y-67301530D01*
X90144600Y-67403130D01*
X90195400Y-67453930D01*
X90297000Y-67504730D01*
X90347800Y-67504730D01*
X90449400Y-67453930D01*
X90500200Y-67403130D01*
X90551000Y-67301530D01*
X90551000Y-67098330D01*
X90601800Y-66996730D01*
X90652600Y-66945930D01*
X90754200Y-66895130D01*
X90957400Y-66895130D01*
X91059000Y-66945930D01*
X91109800Y-66996730D01*
X91160600Y-67098330D01*
X91160600Y-67301530D01*
X91109800Y-67403130D01*
X91059000Y-67453930D01*
X90957400Y-67504730D01*
X90754200Y-67504730D01*
X90652600Y-67453930D01*
X90601800Y-67403130D01*
X90551000Y-67301530D01*
X63982600Y-36550600D02*
X62915800Y-36550600D01*
X62915800Y-36804600D01*
X62966600Y-36957000D01*
X63068200Y-37058600D01*
X63169800Y-37109400D01*
X63373000Y-37160200D01*
X63525400Y-37160200D01*
X63728600Y-37109400D01*
X63830200Y-37058600D01*
X63931800Y-36957000D01*
X63982600Y-36804600D01*
X63982600Y-36550600D01*
X63271400Y-38074600D02*
X63982600Y-38074600D01*
X62865000Y-37820600D02*
X63627000Y-37566600D01*
X63627000Y-38227000D01*
X60488830Y-34772600D02*
X60844430Y-34264600D01*
X61098430Y-34772600D02*
X61098430Y-33705800D01*
X60692030Y-33705800D01*
X60590430Y-33756600D01*
X60539630Y-33807400D01*
X60488830Y-33909000D01*
X60488830Y-34061400D01*
X60539630Y-34163000D01*
X60590430Y-34213800D01*
X60692030Y-34264600D01*
X61098430Y-34264600D01*
X60082430Y-33807400D02*
X60031630Y-33756600D01*
X59930030Y-33705800D01*
X59676030Y-33705800D01*
X59574430Y-33756600D01*
X59523630Y-33807400D01*
X59472830Y-33909000D01*
X59472830Y-34010600D01*
X59523630Y-34163000D01*
X60133230Y-34772600D01*
X59472830Y-34772600D01*
X59117230Y-33705800D02*
X58456830Y-33705800D01*
X58812430Y-34112200D01*
X58660030Y-34112200D01*
X58558430Y-34163000D01*
X58507630Y-34213800D01*
X58456830Y-34315400D01*
X58456830Y-34569400D01*
X58507630Y-34671000D01*
X58558430Y-34721800D01*
X58660030Y-34772600D01*
X58964830Y-34772600D01*
X59066430Y-34721800D01*
X59117230Y-34671000D01*
X98425000Y-47438730D02*
X98475800Y-47387930D01*
X98526600Y-47235530D01*
X98526600Y-47133930D01*
X98475800Y-46981530D01*
X98374200Y-46879930D01*
X98272600Y-46829130D01*
X98069400Y-46778330D01*
X97917000Y-46778330D01*
X97713800Y-46829130D01*
X97612200Y-46879930D01*
X97510600Y-46981530D01*
X97459800Y-47133930D01*
X97459800Y-47235530D01*
X97510600Y-47387930D01*
X97561400Y-47438730D01*
X98526600Y-48454730D02*
X98526600Y-47845130D01*
X98526600Y-48149930D02*
X97459800Y-48149930D01*
X97612200Y-48048330D01*
X97713800Y-47946730D01*
X97764600Y-47845130D01*
X97459800Y-49419930D02*
X97459800Y-48911930D01*
X97967800Y-48861130D01*
X97917000Y-48911930D01*
X97866200Y-49013530D01*
X97866200Y-49267530D01*
X97917000Y-49369130D01*
X97967800Y-49419930D01*
X98069400Y-49470730D01*
X98323400Y-49470730D01*
X98425000Y-49419930D01*
X98475800Y-49369130D01*
X98526600Y-49267530D01*
X98526600Y-49013530D01*
X98475800Y-48911930D01*
X98425000Y-48861130D01*
X85267800Y-69570600D02*
X85267800Y-68503800D01*
X85267800Y-69011800D02*
X84658200Y-69011800D01*
X84658200Y-69570600D02*
X84658200Y-68503800D01*
X84251800Y-68503800D02*
X83591400Y-68503800D01*
X83947000Y-68910200D01*
X83794600Y-68910200D01*
X83693000Y-68961000D01*
X83642200Y-69011800D01*
X83591400Y-69113400D01*
X83591400Y-69367400D01*
X83642200Y-69469000D01*
X83693000Y-69519800D01*
X83794600Y-69570600D01*
X84099400Y-69570600D01*
X84201000Y-69519800D01*
X84251800Y-69469000D01*
X27482800Y-69316600D02*
X27482800Y-68249800D01*
X27482800Y-68757800D02*
X26873200Y-68757800D01*
X26873200Y-69316600D02*
X26873200Y-68249800D01*
X26416000Y-68351400D02*
X26365200Y-68300600D01*
X26263600Y-68249800D01*
X26009600Y-68249800D01*
X25908000Y-68300600D01*
X25857200Y-68351400D01*
X25806400Y-68453000D01*
X25806400Y-68554600D01*
X25857200Y-68707000D01*
X26466800Y-69316600D01*
X25806400Y-69316600D01*
X56769000Y-52067700D02*
X56819800Y-52016900D01*
X56870600Y-51864500D01*
X56870600Y-51762900D01*
X56819800Y-51610500D01*
X56718200Y-51508900D01*
X56616600Y-51458100D01*
X56413400Y-51407300D01*
X56261000Y-51407300D01*
X56057800Y-51458100D01*
X55956200Y-51508900D01*
X55854600Y-51610500D01*
X55803800Y-51762900D01*
X55803800Y-51864500D01*
X55854600Y-52016900D01*
X55905400Y-52067700D01*
X55905400Y-52474100D02*
X55854600Y-52524900D01*
X55803800Y-52626500D01*
X55803800Y-52880500D01*
X55854600Y-52982100D01*
X55905400Y-53032900D01*
X56007000Y-53083700D01*
X56108600Y-53083700D01*
X56261000Y-53032900D01*
X56870600Y-52423300D01*
X56870600Y-53083700D01*
X56870600Y-54099700D02*
X56870600Y-53490100D01*
X56870600Y-53794900D02*
X55803800Y-53794900D01*
X55956200Y-53693300D01*
X56057800Y-53591700D01*
X56108600Y-53490100D01*
X91059000Y-47438730D02*
X91109800Y-47387930D01*
X91160600Y-47235530D01*
X91160600Y-47133930D01*
X91109800Y-46981530D01*
X91008200Y-46879930D01*
X90906600Y-46829130D01*
X90703400Y-46778330D01*
X90551000Y-46778330D01*
X90347800Y-46829130D01*
X90246200Y-46879930D01*
X90144600Y-46981530D01*
X90093800Y-47133930D01*
X90093800Y-47235530D01*
X90144600Y-47387930D01*
X90195400Y-47438730D01*
X91160600Y-48454730D02*
X91160600Y-47845130D01*
X91160600Y-48149930D02*
X90093800Y-48149930D01*
X90246200Y-48048330D01*
X90347800Y-47946730D01*
X90398600Y-47845130D01*
X90093800Y-49369130D02*
X90093800Y-49165930D01*
X90144600Y-49064330D01*
X90195400Y-49013530D01*
X90347800Y-48911930D01*
X90551000Y-48861130D01*
X90957400Y-48861130D01*
X91059000Y-48911930D01*
X91109800Y-48962730D01*
X91160600Y-49064330D01*
X91160600Y-49267530D01*
X91109800Y-49369130D01*
X91059000Y-49419930D01*
X90957400Y-49470730D01*
X90703400Y-49470730D01*
X90601800Y-49419930D01*
X90551000Y-49369130D01*
X90500200Y-49267530D01*
X90500200Y-49064330D01*
X90551000Y-48962730D01*
X90601800Y-48911930D01*
X90703400Y-48861130D01*
X79883000Y-37668200D02*
X79933800Y-37617400D01*
X79984600Y-37465000D01*
X79984600Y-37363400D01*
X79933800Y-37211000D01*
X79832200Y-37109400D01*
X79730600Y-37058600D01*
X79527400Y-37007800D01*
X79375000Y-37007800D01*
X79171800Y-37058600D01*
X79070200Y-37109400D01*
X78968600Y-37211000D01*
X78917800Y-37363400D01*
X78917800Y-37465000D01*
X78968600Y-37617400D01*
X79019400Y-37668200D01*
X79984600Y-38684200D02*
X79984600Y-38074600D01*
X79984600Y-38379400D02*
X78917800Y-38379400D01*
X79070200Y-38277800D01*
X79171800Y-38176200D01*
X79222600Y-38074600D01*
X79273400Y-39598600D02*
X79984600Y-39598600D01*
X78867000Y-39344600D02*
X79629000Y-39090600D01*
X79629000Y-39751000D01*
X98425000Y-65345730D02*
X98475800Y-65294930D01*
X98526600Y-65142530D01*
X98526600Y-65040930D01*
X98475800Y-64888530D01*
X98374200Y-64786930D01*
X98272600Y-64736130D01*
X98069400Y-64685330D01*
X97917000Y-64685330D01*
X97713800Y-64736130D01*
X97612200Y-64786930D01*
X97510600Y-64888530D01*
X97459800Y-65040930D01*
X97459800Y-65142530D01*
X97510600Y-65294930D01*
X97561400Y-65345730D01*
X98526600Y-66361730D02*
X98526600Y-65752130D01*
X98526600Y-66056930D02*
X97459800Y-66056930D01*
X97612200Y-65955330D01*
X97713800Y-65853730D01*
X97764600Y-65752130D01*
X97459800Y-66717330D02*
X97459800Y-67428530D01*
X98526600Y-66971330D01*
X28244800Y-27533600D02*
X28244800Y-26466800D01*
X28244800Y-26974800D02*
X27635200Y-26974800D01*
X27635200Y-27533600D02*
X27635200Y-26466800D01*
X26568400Y-27533600D02*
X27178000Y-27533600D01*
X26873200Y-27533600D02*
X26873200Y-26466800D01*
X26974800Y-26619200D01*
X27076400Y-26720800D01*
X27178000Y-26771600D01*
X57073800Y-48488600D02*
X57429400Y-47980600D01*
X57683400Y-48488600D02*
X57683400Y-47421800D01*
X57277000Y-47421800D01*
X57175400Y-47472600D01*
X57124600Y-47523400D01*
X57073800Y-47625000D01*
X57073800Y-47777400D01*
X57124600Y-47879000D01*
X57175400Y-47929800D01*
X57277000Y-47980600D01*
X57683400Y-47980600D01*
X56667400Y-47523400D02*
X56616600Y-47472600D01*
X56515000Y-47421800D01*
X56261000Y-47421800D01*
X56159400Y-47472600D01*
X56108600Y-47523400D01*
X56057800Y-47625000D01*
X56057800Y-47726600D01*
X56108600Y-47879000D01*
X56718200Y-48488600D01*
X56057800Y-48488600D01*
X55651400Y-47523400D02*
X55600600Y-47472600D01*
X55499000Y-47421800D01*
X55245000Y-47421800D01*
X55143400Y-47472600D01*
X55092600Y-47523400D01*
X55041800Y-47625000D01*
X55041800Y-47726600D01*
X55092600Y-47879000D01*
X55702200Y-48488600D01*
X55041800Y-48488600D01*
X56935400Y-44792600D02*
X56935400Y-43725800D01*
X56681400Y-43725800D01*
X56529000Y-43776600D01*
X56427400Y-43878200D01*
X56376600Y-43979800D01*
X56325800Y-44183000D01*
X56325800Y-44335400D01*
X56376600Y-44538600D01*
X56427400Y-44640200D01*
X56529000Y-44741800D01*
X56681400Y-44792600D01*
X56935400Y-44792600D01*
X55970200Y-43725800D02*
X55309800Y-43725800D01*
X55665400Y-44132200D01*
X55513000Y-44132200D01*
X55411400Y-44183000D01*
X55360600Y-44233800D01*
X55309800Y-44335400D01*
X55309800Y-44589400D01*
X55360600Y-44691000D01*
X55411400Y-44741800D01*
X55513000Y-44792600D01*
X55817800Y-44792600D01*
X55919400Y-44741800D01*
X55970200Y-44691000D01*
X75361800Y-48387000D02*
X75412600Y-48437800D01*
X75565000Y-48488600D01*
X75666600Y-48488600D01*
X75819000Y-48437800D01*
X75920600Y-48336200D01*
X75971400Y-48234600D01*
X76022200Y-48031400D01*
X76022200Y-47879000D01*
X75971400Y-47675800D01*
X75920600Y-47574200D01*
X75819000Y-47472600D01*
X75666600Y-47421800D01*
X75565000Y-47421800D01*
X75412600Y-47472600D01*
X75361800Y-47523400D01*
X74345800Y-48488600D02*
X74955400Y-48488600D01*
X74650600Y-48488600D02*
X74650600Y-47421800D01*
X74752200Y-47574200D01*
X74853800Y-47675800D01*
X74955400Y-47726600D01*
X73990200Y-47421800D02*
X73329800Y-47421800D01*
X73685400Y-47828200D01*
X73533000Y-47828200D01*
X73431400Y-47879000D01*
X73380600Y-47929800D01*
X73329800Y-48031400D01*
X73329800Y-48285400D01*
X73380600Y-48387000D01*
X73431400Y-48437800D01*
X73533000Y-48488600D01*
X73837800Y-48488600D01*
X73939400Y-48437800D01*
X73990200Y-48387000D01*
X76758800Y-40970200D02*
X77622400Y-40970200D01*
X77724000Y-41021000D01*
X77774800Y-41071800D01*
X77825600Y-41173400D01*
X77825600Y-41376600D01*
X77774800Y-41478200D01*
X77724000Y-41529000D01*
X77622400Y-41579800D01*
X76758800Y-41579800D01*
X77825600Y-42138600D02*
X77825600Y-42341800D01*
X77774800Y-42443400D01*
X77724000Y-42494200D01*
X77571600Y-42595800D01*
X77368400Y-42646600D01*
X76962000Y-42646600D01*
X76860400Y-42595800D01*
X76809600Y-42545000D01*
X76758800Y-42443400D01*
X76758800Y-42240200D01*
X76809600Y-42138600D01*
X76860400Y-42087800D01*
X76962000Y-42037000D01*
X77216000Y-42037000D01*
X77317600Y-42087800D01*
X77368400Y-42138600D01*
X77419200Y-42240200D01*
X77419200Y-42443400D01*
X77368400Y-42545000D01*
X77317600Y-42595800D01*
X77216000Y-42646600D01*
X75031600Y-35001200D02*
X74523600Y-34645600D01*
X75031600Y-34391600D02*
X73964800Y-34391600D01*
X73964800Y-34798000D01*
X74015600Y-34899600D01*
X74066400Y-34950400D01*
X74168000Y-35001200D01*
X74320400Y-35001200D01*
X74422000Y-34950400D01*
X74472800Y-34899600D01*
X74523600Y-34798000D01*
X74523600Y-34391600D01*
X75031600Y-36017200D02*
X75031600Y-35407600D01*
X75031600Y-35712400D02*
X73964800Y-35712400D01*
X74117200Y-35610800D01*
X74218800Y-35509200D01*
X74269600Y-35407600D01*
X73964800Y-36372800D02*
X73964800Y-37084000D01*
X75031600Y-36626800D01*
X53390800Y-47434800D02*
X53390800Y-48298400D01*
X53340000Y-48400000D01*
X53289200Y-48450800D01*
X53187600Y-48501600D01*
X52984400Y-48501600D01*
X52882800Y-48450800D01*
X52832000Y-48400000D01*
X52781200Y-48298400D01*
X52781200Y-47434800D01*
X51714400Y-48501600D02*
X52324000Y-48501600D01*
X52019200Y-48501600D02*
X52019200Y-47434800D01*
X52120800Y-47587200D01*
X52222400Y-47688800D01*
X52324000Y-47739600D01*
X50698400Y-48501600D02*
X51308000Y-48501600D01*
X51003200Y-48501600D02*
X51003200Y-47434800D01*
X51104800Y-47587200D01*
X51206400Y-47688800D01*
X51308000Y-47739600D01*
X100507800Y-30200600D02*
X100863400Y-29692600D01*
X101117400Y-30200600D02*
X101117400Y-29133800D01*
X100711000Y-29133800D01*
X100609400Y-29184600D01*
X100558600Y-29235400D01*
X100507800Y-29337000D01*
X100507800Y-29489400D01*
X100558600Y-29591000D01*
X100609400Y-29641800D01*
X100711000Y-29692600D01*
X101117400Y-29692600D01*
X99898200Y-29591000D02*
X99999800Y-29540200D01*
X100050600Y-29489400D01*
X100101400Y-29387800D01*
X100101400Y-29337000D01*
X100050600Y-29235400D01*
X99999800Y-29184600D01*
X99898200Y-29133800D01*
X99695000Y-29133800D01*
X99593400Y-29184600D01*
X99542600Y-29235400D01*
X99491800Y-29337000D01*
X99491800Y-29387800D01*
X99542600Y-29489400D01*
X99593400Y-29540200D01*
X99695000Y-29591000D01*
X99898200Y-29591000D01*
X99999800Y-29641800D01*
X100050600Y-29692600D01*
X100101400Y-29794200D01*
X100101400Y-29997400D01*
X100050600Y-30099000D01*
X99999800Y-30149800D01*
X99898200Y-30200600D01*
X99695000Y-30200600D01*
X99593400Y-30149800D01*
X99542600Y-30099000D01*
X99491800Y-29997400D01*
X99491800Y-29794200D01*
X99542600Y-29692600D01*
X99593400Y-29641800D01*
X99695000Y-29591000D01*
X49936400Y-40868600D02*
X49936400Y-39801800D01*
X49682400Y-39801800D01*
X49530000Y-39852600D01*
X49428400Y-39954200D01*
X49377600Y-40055800D01*
X49326800Y-40259000D01*
X49326800Y-40411400D01*
X49377600Y-40614600D01*
X49428400Y-40716200D01*
X49530000Y-40817800D01*
X49682400Y-40868600D01*
X49936400Y-40868600D01*
X48412400Y-39801800D02*
X48615600Y-39801800D01*
X48717200Y-39852600D01*
X48768000Y-39903400D01*
X48869600Y-40055800D01*
X48920400Y-40259000D01*
X48920400Y-40665400D01*
X48869600Y-40767000D01*
X48818800Y-40817800D01*
X48717200Y-40868600D01*
X48514000Y-40868600D01*
X48412400Y-40817800D01*
X48361600Y-40767000D01*
X48310800Y-40665400D01*
X48310800Y-40411400D01*
X48361600Y-40309800D01*
X48412400Y-40259000D01*
X48514000Y-40208200D01*
X48717200Y-40208200D01*
X48818800Y-40259000D01*
X48869600Y-40309800D01*
X48920400Y-40411400D01*
X60680600Y-56845200D02*
X60172600Y-56489600D01*
X60680600Y-56235600D02*
X59613800Y-56235600D01*
X59613800Y-56642000D01*
X59664600Y-56743600D01*
X59715400Y-56794400D01*
X59817000Y-56845200D01*
X59969400Y-56845200D01*
X60071000Y-56794400D01*
X60121800Y-56743600D01*
X60172600Y-56642000D01*
X60172600Y-56235600D01*
X60680600Y-57861200D02*
X60680600Y-57251600D01*
X60680600Y-57556400D02*
X59613800Y-57556400D01*
X59766200Y-57454800D01*
X59867800Y-57353200D01*
X59918600Y-57251600D01*
X60680600Y-58877200D02*
X60680600Y-58267600D01*
X60680600Y-58572400D02*
X59613800Y-58572400D01*
X59766200Y-58470800D01*
X59867800Y-58369200D01*
X59918600Y-58267600D01*
X35991800Y-46456600D02*
X36347400Y-45948600D01*
X36601400Y-46456600D02*
X36601400Y-45389800D01*
X36195000Y-45389800D01*
X36093400Y-45440600D01*
X36042600Y-45491400D01*
X35991800Y-45593000D01*
X35991800Y-45745400D01*
X36042600Y-45847000D01*
X36093400Y-45897800D01*
X36195000Y-45948600D01*
X36601400Y-45948600D01*
X35026600Y-45389800D02*
X35534600Y-45389800D01*
X35585400Y-45897800D01*
X35534600Y-45847000D01*
X35433000Y-45796200D01*
X35179000Y-45796200D01*
X35077400Y-45847000D01*
X35026600Y-45897800D01*
X34975800Y-45999400D01*
X34975800Y-46253400D01*
X35026600Y-46355000D01*
X35077400Y-46405800D01*
X35179000Y-46456600D01*
X35433000Y-46456600D01*
X35534600Y-46405800D01*
X35585400Y-46355000D01*
X39105800Y-55499000D02*
X39156600Y-55549800D01*
X39309000Y-55600600D01*
X39410600Y-55600600D01*
X39563000Y-55549800D01*
X39664600Y-55448200D01*
X39715400Y-55346600D01*
X39766200Y-55143400D01*
X39766200Y-54991000D01*
X39715400Y-54787800D01*
X39664600Y-54686200D01*
X39563000Y-54584600D01*
X39410600Y-54533800D01*
X39309000Y-54533800D01*
X39156600Y-54584600D01*
X39105800Y-54635400D01*
X38089800Y-55600600D02*
X38699400Y-55600600D01*
X38394600Y-55600600D02*
X38394600Y-54533800D01*
X38496200Y-54686200D01*
X38597800Y-54787800D01*
X38699400Y-54838600D01*
X49936400Y-44170600D02*
X49936400Y-43103800D01*
X49682400Y-43103800D01*
X49530000Y-43154600D01*
X49428400Y-43256200D01*
X49377600Y-43357800D01*
X49326800Y-43561000D01*
X49326800Y-43713400D01*
X49377600Y-43916600D01*
X49428400Y-44018200D01*
X49530000Y-44119800D01*
X49682400Y-44170600D01*
X49936400Y-44170600D01*
X48361600Y-43103800D02*
X48869600Y-43103800D01*
X48920400Y-43611800D01*
X48869600Y-43561000D01*
X48768000Y-43510200D01*
X48514000Y-43510200D01*
X48412400Y-43561000D01*
X48361600Y-43611800D01*
X48310800Y-43713400D01*
X48310800Y-43967400D01*
X48361600Y-44069000D01*
X48412400Y-44119800D01*
X48514000Y-44170600D01*
X48768000Y-44170600D01*
X48869600Y-44119800D01*
X48920400Y-44069000D01*
X95681800Y-31115000D02*
X95732600Y-31165800D01*
X95885000Y-31216600D01*
X95986600Y-31216600D01*
X96139000Y-31165800D01*
X96240600Y-31064200D01*
X96291400Y-30962600D01*
X96342200Y-30759400D01*
X96342200Y-30607000D01*
X96291400Y-30403800D01*
X96240600Y-30302200D01*
X96139000Y-30200600D01*
X95986600Y-30149800D01*
X95885000Y-30149800D01*
X95732600Y-30200600D01*
X95681800Y-30251400D01*
X95275400Y-30251400D02*
X95224600Y-30200600D01*
X95123000Y-30149800D01*
X94869000Y-30149800D01*
X94767400Y-30200600D01*
X94716600Y-30251400D01*
X94665800Y-30353000D01*
X94665800Y-30454600D01*
X94716600Y-30607000D01*
X95326200Y-31216600D01*
X94665800Y-31216600D01*
X65481200Y-37236400D02*
X65430400Y-37134800D01*
X65328800Y-37033200D01*
X65176400Y-36880800D01*
X65125600Y-36779200D01*
X65125600Y-36677600D01*
X65379600Y-36728400D02*
X65328800Y-36626800D01*
X65227200Y-36525200D01*
X65024000Y-36474400D01*
X64668400Y-36474400D01*
X64465200Y-36525200D01*
X64363600Y-36626800D01*
X64312800Y-36728400D01*
X64312800Y-36931600D01*
X64363600Y-37033200D01*
X64465200Y-37134800D01*
X64668400Y-37185600D01*
X65024000Y-37185600D01*
X65227200Y-37134800D01*
X65328800Y-37033200D01*
X65379600Y-36931600D01*
X65379600Y-36728400D01*
X65379600Y-38201600D02*
X65379600Y-37592000D01*
X65379600Y-37896800D02*
X64312800Y-37896800D01*
X64465200Y-37795200D01*
X64566800Y-37693600D01*
X64617600Y-37592000D01*
X35991800Y-42138600D02*
X36347400Y-41630600D01*
X36601400Y-42138600D02*
X36601400Y-41071800D01*
X36195000Y-41071800D01*
X36093400Y-41122600D01*
X36042600Y-41173400D01*
X35991800Y-41275000D01*
X35991800Y-41427400D01*
X36042600Y-41529000D01*
X36093400Y-41579800D01*
X36195000Y-41630600D01*
X36601400Y-41630600D01*
X35077400Y-41071800D02*
X35280600Y-41071800D01*
X35382200Y-41122600D01*
X35433000Y-41173400D01*
X35534600Y-41325800D01*
X35585400Y-41529000D01*
X35585400Y-41935400D01*
X35534600Y-42037000D01*
X35483800Y-42087800D01*
X35382200Y-42138600D01*
X35179000Y-42138600D01*
X35077400Y-42087800D01*
X35026600Y-42037000D01*
X34975800Y-41935400D01*
X34975800Y-41681400D01*
X35026600Y-41579800D01*
X35077400Y-41529000D01*
X35179000Y-41478200D01*
X35382200Y-41478200D01*
X35483800Y-41529000D01*
X35534600Y-41579800D01*
X35585400Y-41681400D01*
X33883600Y-38785800D02*
X33883600Y-39547800D01*
X33934400Y-39700200D01*
X34036000Y-39801800D01*
X34188400Y-39852600D01*
X34290000Y-39852600D01*
X33223200Y-39243000D02*
X33324800Y-39192200D01*
X33375600Y-39141400D01*
X33426400Y-39039800D01*
X33426400Y-38989000D01*
X33375600Y-38887400D01*
X33324800Y-38836600D01*
X33223200Y-38785800D01*
X33020000Y-38785800D01*
X32918400Y-38836600D01*
X32867600Y-38887400D01*
X32816800Y-38989000D01*
X32816800Y-39039800D01*
X32867600Y-39141400D01*
X32918400Y-39192200D01*
X33020000Y-39243000D01*
X33223200Y-39243000D01*
X33324800Y-39293800D01*
X33375600Y-39344600D01*
X33426400Y-39446200D01*
X33426400Y-39649400D01*
X33375600Y-39751000D01*
X33324800Y-39801800D01*
X33223200Y-39852600D01*
X33020000Y-39852600D01*
X32918400Y-39801800D01*
X32867600Y-39751000D01*
X32816800Y-39649400D01*
X32816800Y-39446200D01*
X32867600Y-39344600D01*
X32918400Y-39293800D01*
X33020000Y-39243000D01*
X100507800Y-28676600D02*
X100863400Y-28168600D01*
X101117400Y-28676600D02*
X101117400Y-27609800D01*
X100711000Y-27609800D01*
X100609400Y-27660600D01*
X100558600Y-27711400D01*
X100507800Y-27813000D01*
X100507800Y-27965400D01*
X100558600Y-28067000D01*
X100609400Y-28117800D01*
X100711000Y-28168600D01*
X101117400Y-28168600D01*
X99999800Y-28676600D02*
X99796600Y-28676600D01*
X99695000Y-28625800D01*
X99644200Y-28575000D01*
X99542600Y-28422600D01*
X99491800Y-28219400D01*
X99491800Y-27813000D01*
X99542600Y-27711400D01*
X99593400Y-27660600D01*
X99695000Y-27609800D01*
X99898200Y-27609800D01*
X99999800Y-27660600D01*
X100050600Y-27711400D01*
X100101400Y-27813000D01*
X100101400Y-28067000D01*
X100050600Y-28168600D01*
X99999800Y-28219400D01*
X99898200Y-28270200D01*
X99695000Y-28270200D01*
X99593400Y-28219400D01*
X99542600Y-28168600D01*
X99491800Y-28067000D01*
X62204600Y-56845200D02*
X61696600Y-56489600D01*
X62204600Y-56235600D02*
X61137800Y-56235600D01*
X61137800Y-56642000D01*
X61188600Y-56743600D01*
X61239400Y-56794400D01*
X61341000Y-56845200D01*
X61493400Y-56845200D01*
X61595000Y-56794400D01*
X61645800Y-56743600D01*
X61696600Y-56642000D01*
X61696600Y-56235600D01*
X62204600Y-57861200D02*
X62204600Y-57251600D01*
X62204600Y-57556400D02*
X61137800Y-57556400D01*
X61290200Y-57454800D01*
X61391800Y-57353200D01*
X61442600Y-57251600D01*
X61137800Y-58521600D02*
X61137800Y-58623200D01*
X61188600Y-58724800D01*
X61239400Y-58775600D01*
X61341000Y-58826400D01*
X61544200Y-58877200D01*
X61798200Y-58877200D01*
X62001400Y-58826400D01*
X62103000Y-58775600D01*
X62153800Y-58724800D01*
X62204600Y-58623200D01*
X62204600Y-58521600D01*
X62153800Y-58420000D01*
X62103000Y-58369200D01*
X62001400Y-58318400D01*
X61798200Y-58267600D01*
X61544200Y-58267600D01*
X61341000Y-58318400D01*
X61239400Y-58369200D01*
X61188600Y-58420000D01*
X61137800Y-58521600D01*
X64255748Y-44604000D02*
X64778252Y-44604000D01*
X64255748Y-46074000D02*
X64778252Y-46074000D01*
X69432000Y-39493936D02*
X69432000Y-42548064D01*
X66712000Y-39493936D02*
X66712000Y-42548064D01*
X59559936Y-47916000D02*
X62614064Y-47916000D01*
X59559936Y-50636000D02*
X62614064Y-50636000D01*
X72607000Y-42548064D02*
X72607000Y-39493936D01*
X69887000Y-42548064D02*
X69887000Y-39493936D01*
X66675000Y-47843000D02*
X68475000Y-47843000D01*
X66675000Y-47843000D02*
X65875000Y-47843000D01*
X66675000Y-50963000D02*
X67475000Y-50963000D01*
X66675000Y-50963000D02*
X65875000Y-50963000D01*
X36794000Y-50038000D02*
X36794000Y-50838000D01*
X39914000Y-50038000D02*
X39914000Y-51838000D01*
X39914000Y-50038000D02*
X39914000Y-49238000D01*
X36794000Y-50038000D02*
X36794000Y-49238000D01*
X50440000Y-49930164D02*
X50440000Y-50145836D01*
X51160000Y-49930164D02*
X51160000Y-50145836D01*
X61060359Y-47497000D02*
X61367641Y-47497000D01*
X61060359Y-46737000D02*
X61367641Y-46737000D01*
X89943000Y-69730252D02*
X89943000Y-69207748D01*
X91413000Y-69730252D02*
X91413000Y-69207748D01*
X62576000Y-38338000D02*
X58676000Y-38338000D01*
X62576000Y-36338000D02*
X58676000Y-36338000D01*
X62576000Y-36338000D02*
X62576000Y-38338000D01*
X60479641Y-35940000D02*
X60172359Y-35940000D01*
X60479641Y-35180000D02*
X60172359Y-35180000D01*
X97309000Y-51823252D02*
X97309000Y-51300748D01*
X98779000Y-51823252D02*
X98779000Y-51300748D01*
X56494000Y-49930164D02*
X56494000Y-50145836D01*
X55774000Y-49930164D02*
X55774000Y-50145836D01*
X89943000Y-51823252D02*
X89943000Y-51300748D01*
X91413000Y-51823252D02*
X91413000Y-51300748D01*
X75602000Y-39065252D02*
X75602000Y-37642748D01*
X78322000Y-39065252D02*
X78322000Y-37642748D01*
X97309000Y-69730252D02*
X97309000Y-69207748D01*
X98779000Y-69730252D02*
X98779000Y-69207748D01*
X59335641Y-46737000D02*
X59028359Y-46737000D01*
X59335641Y-47497000D02*
X59028359Y-47497000D01*
X62576000Y-44339000D02*
X62576000Y-46339000D01*
X62576000Y-46339000D02*
X58676000Y-46339000D01*
X62576000Y-44339000D02*
X58676000Y-44339000D01*
X74937252Y-46836000D02*
X74414748Y-46836000D01*
X74937252Y-45366000D02*
X74414748Y-45366000D01*
X76236000Y-42799000D02*
X76236000Y-41999000D01*
X76236000Y-42799000D02*
X76236000Y-44599000D01*
X73116000Y-42799000D02*
X73116000Y-43599000D01*
X73116000Y-42799000D02*
X73116000Y-41999000D01*
X75056000Y-39777641D02*
X75056000Y-39470359D01*
X74296000Y-39777641D02*
X74296000Y-39470359D01*
X53467000Y-48859000D02*
X52667000Y-48859000D01*
X53467000Y-51979000D02*
X52667000Y-51979000D01*
X53467000Y-51979000D02*
X54267000Y-51979000D01*
X53467000Y-48859000D02*
X55267000Y-48859000D01*
X98453641Y-29338000D02*
X98146359Y-29338000D01*
X98453641Y-30098000D02*
X98146359Y-30098000D01*
X56134000Y-41899000D02*
X50434000Y-41899000D01*
X50434000Y-38899000D02*
X56134000Y-38899000D01*
X50434000Y-41899000D02*
X50434000Y-38899000D01*
X60832000Y-60044359D02*
X60832000Y-60351641D01*
X60072000Y-60044359D02*
X60072000Y-60351641D01*
X35967641Y-47624000D02*
X35660359Y-47624000D01*
X35967641Y-46864000D02*
X35660359Y-46864000D01*
X39189252Y-54075000D02*
X38666748Y-54075000D01*
X39189252Y-52605000D02*
X38666748Y-52605000D01*
X50434000Y-45201000D02*
X50434000Y-42201000D01*
X56134000Y-45201000D02*
X50434000Y-45201000D01*
X50434000Y-42201000D02*
X56134000Y-42201000D01*
X93364164Y-31094000D02*
X93579836Y-31094000D01*
X93364164Y-30374000D02*
X93579836Y-30374000D01*
X59793000Y-38832000D02*
X65683000Y-38832000D01*
X59338000Y-43972000D02*
X65683000Y-43972000D01*
X35967641Y-43306000D02*
X35660359Y-43306000D01*
X35967641Y-42546000D02*
X35660359Y-42546000D01*
X22740000Y-40610000D02*
X25640000Y-40610000D01*
X20040000Y-40610000D02*
X20040000Y-53710000D01*
X34090000Y-41284000D02*
X34090000Y-42286000D01*
X34090000Y-48034000D02*
X34090000Y-53036000D01*
X28640000Y-40610000D02*
X30740000Y-40610000D01*
X19690000Y-44780000D02*
G75*
G03*
X19690000Y-44780000I-100000J0D01*
G01*
X98451641Y-27814000D02*
X98144359Y-27814000D01*
X98451641Y-28574000D02*
X98144359Y-28574000D01*
X62102000Y-60351641D02*
X62102000Y-60044359D01*
X61342000Y-60351641D02*
X61342000Y-60044359D01*
%LPC*%
D12*
X63567000Y-45339000D03*
X65467000Y-45339000D03*
D13*
X68072000Y-38708500D03*
X68072000Y-43333500D03*
D14*
X58774500Y-49276000D03*
X63399500Y-49276000D03*
D15*
X71247000Y-38708500D03*
X71247000Y-43333500D03*
D16*
X67812500Y-48453000D03*
X67812500Y-49403000D03*
X67812500Y-50353000D03*
X65537500Y-50353000D03*
X65537500Y-48453000D03*
D17*
X39304000Y-51175500D03*
X38354000Y-51175500D03*
X37404000Y-51175500D03*
X37404000Y-48900500D03*
X39304000Y-48900500D03*
D18*
X62600000Y-71470000D03*
X62600000Y-74830000D03*
X56400000Y-71470000D03*
X56400000Y-74830000D03*
D19*
X50800000Y-49558000D03*
X50800000Y-50518000D03*
D20*
X60704000Y-47117000D03*
X61724000Y-47117000D03*
D21*
X81500000Y-23500000D03*
D22*
X90678000Y-70419000D03*
X90678000Y-68519000D03*
D23*
X61976000Y-37338000D03*
X58676000Y-37338000D03*
D24*
X60836000Y-35560000D03*
X59816000Y-35560000D03*
D25*
X97250000Y-24535000D03*
X97250000Y-35965000D03*
D26*
X88360000Y-35965000D03*
D27*
X90900000Y-34695000D03*
X88360000Y-33425000D03*
X90900000Y-32155000D03*
X88360000Y-30885000D03*
X90900000Y-29615000D03*
X88360000Y-28345000D03*
X90900000Y-27075000D03*
X88360000Y-25805000D03*
X90900000Y-24535000D03*
X93420000Y-35965000D03*
X94690000Y-33425000D03*
X94690000Y-27075000D03*
X93420000Y-24535000D03*
X101310000Y-36880000D03*
X101310000Y-34340000D03*
X101310000Y-26160000D03*
X101310000Y-23620000D03*
D28*
X94200000Y-38125000D03*
X94200000Y-22375000D03*
D22*
X98044000Y-52512000D03*
X98044000Y-50612000D03*
D21*
X81500000Y-72500000D03*
D29*
X92680000Y-42430000D03*
X92680000Y-55570000D03*
X98360000Y-42430000D03*
X98360000Y-55570000D03*
D27*
X95650000Y-45500000D03*
X95650000Y-48000000D03*
X95650000Y-50000000D03*
X95650000Y-52500000D03*
X93030000Y-45500000D03*
X93030000Y-48000000D03*
X93030000Y-50000000D03*
X93030000Y-52500000D03*
D21*
X23500000Y-72500000D03*
D27*
X93030000Y-70500000D03*
X93030000Y-68000000D03*
X93030000Y-66000000D03*
X93030000Y-63500000D03*
X95650000Y-70500000D03*
X95650000Y-68000000D03*
X95650000Y-66000000D03*
X95650000Y-63500000D03*
D29*
X98360000Y-73570000D03*
X98360000Y-60430000D03*
X92680000Y-73570000D03*
X92680000Y-60430000D03*
D18*
X48820000Y-71470000D03*
X48820000Y-74830000D03*
X42620000Y-71470000D03*
X42620000Y-74830000D03*
D19*
X56134000Y-49558000D03*
X56134000Y-50518000D03*
D30*
X38100000Y-71623000D03*
D31*
X38100000Y-74163000D03*
D30*
X87528000Y-71628000D03*
D31*
X87528000Y-74168000D03*
D32*
X30000000Y-64760000D03*
X78000000Y-64760000D03*
X30000000Y-31760000D03*
X78000000Y-31760000D03*
D22*
X90678000Y-52512000D03*
X90678000Y-50612000D03*
D33*
X76962000Y-39829000D03*
X76962000Y-36879000D03*
D22*
X98044000Y-70419000D03*
X98044000Y-68519000D03*
D34*
X28474988Y-75030000D03*
D35*
X28774988Y-72000000D03*
D34*
X33924988Y-75030000D03*
D35*
X33624988Y-72000000D03*
D30*
X24404000Y-28214000D03*
D31*
X21864000Y-28214000D03*
X24404000Y-30754000D03*
X21864000Y-30754000D03*
D21*
X23500000Y-23500000D03*
D24*
X59692000Y-47117000D03*
X58672000Y-47117000D03*
D23*
X61976000Y-45339000D03*
X58676000Y-45339000D03*
D36*
X75626000Y-46101000D03*
X73726000Y-46101000D03*
D30*
X28369997Y-24770001D03*
D31*
X28369997Y-22230001D03*
X30909997Y-24770001D03*
X30909997Y-22230001D03*
X33449997Y-24770001D03*
X33449997Y-22230001D03*
X35989997Y-24770001D03*
X35989997Y-22230001D03*
X38529997Y-24770001D03*
X38529997Y-22230001D03*
X41069997Y-24770001D03*
X41069997Y-22230001D03*
X43609997Y-24770001D03*
X43609997Y-22230001D03*
X46149997Y-24770001D03*
X46149997Y-22230001D03*
X48689997Y-24770001D03*
X48689997Y-22230001D03*
X51229997Y-24770001D03*
X51229997Y-22230001D03*
X53769997Y-24770001D03*
X53769997Y-22230001D03*
X56309997Y-24770001D03*
X56309997Y-22230001D03*
X58849997Y-24770001D03*
X58849997Y-22230001D03*
X61389997Y-24770001D03*
X61389997Y-22230001D03*
X63929997Y-24770001D03*
X63929997Y-22230001D03*
X66469997Y-24770001D03*
X66469997Y-22230001D03*
X69009997Y-24770001D03*
X69009997Y-22230001D03*
X71549997Y-24770001D03*
X71549997Y-22230001D03*
X74089997Y-24770001D03*
X74089997Y-22230001D03*
X76629997Y-24770001D03*
X76629997Y-22230001D03*
D17*
X75626000Y-43936500D03*
X74676000Y-43936500D03*
X73726000Y-43936500D03*
X73726000Y-41661500D03*
X74676000Y-41661500D03*
X75626000Y-41661500D03*
D37*
X74676000Y-40134000D03*
X74676000Y-39114000D03*
D30*
X24404000Y-33294000D03*
D31*
X21864000Y-33294000D03*
X24404000Y-35834000D03*
X21864000Y-35834000D03*
D16*
X54604500Y-49469000D03*
X54604500Y-50419000D03*
X54604500Y-51369000D03*
X52329500Y-51369000D03*
X52329500Y-49469000D03*
D24*
X98810000Y-29718000D03*
X97790000Y-29718000D03*
D38*
X56134000Y-40399000D03*
X51334000Y-40399000D03*
D39*
X60452000Y-59688000D03*
X60452000Y-60708000D03*
D24*
X36324000Y-47244000D03*
X35304000Y-47244000D03*
D36*
X39878000Y-53340000D03*
X37978000Y-53340000D03*
D38*
X51334000Y-43701000D03*
X56134000Y-43701000D03*
D40*
X92992000Y-30734000D03*
X93952000Y-30734000D03*
D41*
X60068000Y-43307000D03*
X60068000Y-42037000D03*
X60068000Y-40767000D03*
X60068000Y-39497000D03*
D42*
X65533000Y-39497000D03*
D43*
X63428000Y-40272000D03*
D42*
X65533000Y-40767000D03*
X65533000Y-42037000D03*
D43*
X63428000Y-42532000D03*
D42*
X65533000Y-43307000D03*
D24*
X36324000Y-42926000D03*
X35304000Y-42926000D03*
D44*
X21440000Y-44780000D03*
X21440000Y-45880000D03*
X21440000Y-46980000D03*
X21440000Y-48080000D03*
X21440000Y-49180000D03*
X21440000Y-50280000D03*
X21440000Y-51380000D03*
X21440000Y-52480000D03*
D45*
X33905000Y-42990000D03*
D46*
X33980000Y-47255000D03*
D47*
X32705000Y-40680000D03*
X32705000Y-53640000D03*
D48*
X21940000Y-53560000D03*
D49*
X21455000Y-40900000D03*
D24*
X98808000Y-28194000D03*
X97788000Y-28194000D03*
D37*
X61722000Y-60708000D03*
X61722000Y-59688000D03*
M02*
