G04 #@! TF.GenerationSoftware,KiCad,Pcbnew,(6.0.2-0)*
G04 #@! TF.CreationDate,2022-04-26T16:32:33-05:00*
G04 #@! TF.ProjectId,Pi2CM4,50693243-4d34-42e6-9b69-6361645f7063,rev?*
G04 #@! TF.SameCoordinates,Original*
G04 #@! TF.FileFunction,Soldermask,Top*
G04 #@! TF.FilePolarity,Negative*
%FSLAX46Y46*%
G04 Gerber Fmt 4.6, Leading zero omitted, Abs format (unit mm)*
G04 Created by KiCad (PCBNEW (6.0.2-0)) date 2022-04-26 16:32:33*
%MOMM*%
%LPD*%
G01*
G04 APERTURE LIST*
G04 Aperture macros list*
%AMRoundRect*
0 Rectangle with rounded corners*
0 $1 Rounding radius*
0 $2 $3 $4 $5 $6 $7 $8 $9 X,Y pos of 4 corners*
0 Add a 4 corners polygon primitive as box body*
4,1,4,$2,$3,$4,$5,$6,$7,$8,$9,$2,$3,0*
0 Add four circle primitives for the rounded corners*
1,1,$1+$1,$2,$3*
1,1,$1+$1,$4,$5*
1,1,$1+$1,$6,$7*
1,1,$1+$1,$8,$9*
0 Add four rect primitives between the rounded corners*
20,1,$1+$1,$2,$3,$4,$5,0*
20,1,$1+$1,$4,$5,$6,$7,0*
20,1,$1+$1,$6,$7,$8,$9,0*
20,1,$1+$1,$8,$9,$2,$3,0*%
G04 Aperture macros list end*
%ADD10RoundRect,0.150000X-0.150000X0.512500X-0.150000X-0.512500X0.150000X-0.512500X0.150000X0.512500X0*%
%ADD11RoundRect,0.135000X0.185000X-0.135000X0.185000X0.135000X-0.185000X0.135000X-0.185000X-0.135000X0*%
%ADD12R,1.850000X0.600000*%
%ADD13R,1.650000X0.600000*%
%ADD14RoundRect,0.135000X-0.135000X-0.185000X0.135000X-0.185000X0.135000X0.185000X-0.135000X0.185000X0*%
%ADD15RoundRect,0.140000X0.170000X-0.140000X0.170000X0.140000X-0.170000X0.140000X-0.170000X-0.140000X0*%
%ADD16R,0.230000X0.850000*%
%ADD17R,0.230000X1.000000*%
%ADD18O,1.500000X2.550000*%
%ADD19RoundRect,0.140000X0.140000X0.170000X-0.140000X0.170000X-0.140000X-0.170000X0.140000X-0.170000X0*%
%ADD20RoundRect,0.135000X0.135000X0.185000X-0.135000X0.185000X-0.135000X-0.185000X0.135000X-0.185000X0*%
%ADD21R,0.575000X0.300000*%
%ADD22R,0.575000X0.250000*%
%ADD23R,0.350000X0.630000*%
%ADD24R,2.000000X2.000000*%
%ADD25C,6.000000*%
%ADD26C,3.200000*%
%ADD27RoundRect,0.250500X0.499500X-0.499500X0.499500X0.499500X-0.499500X0.499500X-0.499500X-0.499500X0*%
%ADD28C,1.500000*%
%ADD29C,2.500000*%
%ADD30R,0.300000X0.550000*%
%ADD31R,0.400000X0.550000*%
%ADD32R,1.150000X1.000000*%
%ADD33R,0.550000X0.300000*%
%ADD34R,0.550000X0.400000*%
%ADD35C,3.450000*%
%ADD36RoundRect,0.140000X-0.140000X-0.170000X0.140000X-0.170000X0.140000X0.170000X-0.140000X0.170000X0*%
%ADD37R,1.700000X1.700000*%
%ADD38O,1.700000X1.700000*%
%ADD39C,6.100000*%
%ADD40R,0.200000X0.700000*%
%ADD41RoundRect,0.250000X-0.475000X0.250000X-0.475000X-0.250000X0.475000X-0.250000X0.475000X0.250000X0*%
%ADD42RoundRect,0.218750X0.218750X0.256250X-0.218750X0.256250X-0.218750X-0.256250X0.218750X-0.256250X0*%
%ADD43R,0.400000X1.750000*%
%ADD44R,2.000000X1.400000*%
%ADD45O,1.300000X1.700000*%
%ADD46O,1.000000X1.400000*%
%ADD47R,1.300000X2.000000*%
%ADD48R,1.825000X0.700000*%
%ADD49RoundRect,0.062500X0.350000X0.062500X-0.350000X0.062500X-0.350000X-0.062500X0.350000X-0.062500X0*%
%ADD50RoundRect,0.062500X0.062500X0.350000X-0.062500X0.350000X-0.062500X-0.350000X0.062500X-0.350000X0*%
%ADD51R,3.700000X3.700000*%
%ADD52RoundRect,0.140000X-0.170000X0.140000X-0.170000X-0.140000X0.170000X-0.140000X0.170000X0.140000X0*%
%ADD53RoundRect,0.250000X-0.250000X-0.475000X0.250000X-0.475000X0.250000X0.475000X-0.250000X0.475000X0*%
G04 APERTURE END LIST*
D10*
X29144000Y-58425500D03*
X28194000Y-58425500D03*
X27244000Y-58425500D03*
X27244000Y-60700500D03*
X29144000Y-60700500D03*
D11*
X86233000Y-56517000D03*
X86233000Y-55497000D03*
D12*
X25859994Y-40999994D03*
X25859994Y-41999994D03*
X25859994Y-42999994D03*
X25859994Y-43999994D03*
X25859994Y-44999994D03*
X25859994Y-45999994D03*
X25859994Y-46999994D03*
X25859994Y-47999994D03*
X25859994Y-48999994D03*
X25859994Y-49999994D03*
X25859994Y-50999994D03*
X25859994Y-51999994D03*
X25859994Y-52999994D03*
X25859994Y-53999994D03*
X25859994Y-54999994D03*
D13*
X22109994Y-54999994D03*
X22109994Y-53999994D03*
X22109994Y-52999994D03*
X22109994Y-51999994D03*
X22109994Y-50999994D03*
X22109994Y-49999994D03*
X22109994Y-48999994D03*
X22109994Y-47999994D03*
X22109994Y-46999994D03*
X22109994Y-45999994D03*
X22109994Y-44999994D03*
X22109994Y-43999994D03*
X22109994Y-42999994D03*
X22109994Y-41999994D03*
X22109994Y-40999994D03*
D14*
X24634000Y-60960000D03*
X25654000Y-60960000D03*
D15*
X80645000Y-58011000D03*
X80645000Y-57051000D03*
D16*
X61300000Y-70055000D03*
D17*
X61100000Y-71280000D03*
D16*
X60900000Y-70055000D03*
D17*
X60700000Y-71280000D03*
D16*
X60500000Y-70055000D03*
D17*
X60300000Y-71280000D03*
D16*
X60100000Y-70055000D03*
D17*
X59900000Y-71280000D03*
D16*
X59700000Y-70055000D03*
D17*
X59500000Y-71280000D03*
D16*
X59300000Y-70055000D03*
D17*
X59100000Y-71280000D03*
D16*
X58900000Y-70055000D03*
D17*
X58700000Y-71280000D03*
D16*
X58500000Y-70055000D03*
D17*
X58300000Y-71280000D03*
D16*
X58100000Y-70055000D03*
D17*
X57900000Y-71280000D03*
D16*
X57700000Y-70055000D03*
D18*
X62600000Y-71470000D03*
X62600000Y-74830000D03*
X56400000Y-71470000D03*
X56400000Y-74830000D03*
D19*
X78204000Y-55372000D03*
X77244000Y-55372000D03*
D20*
X78234000Y-48514000D03*
X77214000Y-48514000D03*
D21*
X36705500Y-63234000D03*
D22*
X36705500Y-62734000D03*
X36705500Y-62234000D03*
D21*
X36705500Y-61734000D03*
D23*
X36068000Y-61624000D03*
D21*
X35430500Y-61734000D03*
D22*
X35430500Y-62234000D03*
X35430500Y-62734000D03*
D21*
X35430500Y-63234000D03*
D23*
X36068000Y-63344000D03*
D24*
X24892000Y-66167000D03*
D15*
X82042000Y-45819000D03*
X82042000Y-44859000D03*
D25*
X81500000Y-23500000D03*
D12*
X64640000Y-71500000D03*
X64640000Y-70500000D03*
X64640000Y-69500000D03*
X64640000Y-68500000D03*
X64640000Y-67500000D03*
X64640000Y-66500000D03*
X64640000Y-65500000D03*
X64640000Y-64500000D03*
X64640000Y-63500000D03*
X64640000Y-62500000D03*
X64640000Y-61500000D03*
X64640000Y-60500000D03*
X64640000Y-59500000D03*
X64640000Y-58500000D03*
X64640000Y-57500000D03*
D13*
X68390000Y-57500000D03*
X68390000Y-58500000D03*
X68390000Y-59500000D03*
X68390000Y-60500000D03*
X68390000Y-61500000D03*
X68390000Y-62500000D03*
X68390000Y-63500000D03*
X68390000Y-64500000D03*
X68390000Y-65500000D03*
X68390000Y-66500000D03*
X68390000Y-67500000D03*
X68390000Y-68500000D03*
X68390000Y-69500000D03*
X68390000Y-70500000D03*
X68390000Y-71500000D03*
D19*
X78204000Y-53340000D03*
X77244000Y-53340000D03*
D20*
X78234000Y-50800000D03*
X77214000Y-50800000D03*
D26*
X97250000Y-24535000D03*
X97250000Y-35965000D03*
D27*
X88360000Y-35965000D03*
D28*
X90900000Y-34695000D03*
X88360000Y-33425000D03*
X90900000Y-32155000D03*
X88360000Y-30885000D03*
X90900000Y-29615000D03*
X88360000Y-28345000D03*
X90900000Y-27075000D03*
X88360000Y-25805000D03*
X90900000Y-24535000D03*
X93420000Y-35965000D03*
X94690000Y-33425000D03*
X94690000Y-27075000D03*
X93420000Y-24535000D03*
X101310000Y-36880000D03*
X101310000Y-34340000D03*
X101310000Y-26160000D03*
X101310000Y-23620000D03*
D29*
X94200000Y-38125000D03*
X94200000Y-22375000D03*
D30*
X29988000Y-69727000D03*
X30488000Y-69727000D03*
D31*
X30988000Y-69727000D03*
D30*
X31488000Y-69727000D03*
X31988000Y-69727000D03*
X31988000Y-68957000D03*
X31488000Y-68957000D03*
D31*
X30988000Y-68957000D03*
D30*
X30488000Y-68957000D03*
X29988000Y-68957000D03*
D19*
X78204000Y-49784000D03*
X77244000Y-49784000D03*
D32*
X83679000Y-56450000D03*
X81929000Y-56450000D03*
X81929000Y-57850000D03*
X83679000Y-57850000D03*
D20*
X78234000Y-51816000D03*
X77214000Y-51816000D03*
D24*
X21717000Y-66167000D03*
D33*
X84451000Y-26940000D03*
X84451000Y-27440000D03*
D34*
X84451000Y-27940000D03*
D33*
X84451000Y-28440000D03*
X84451000Y-28940000D03*
X85221000Y-28940000D03*
X85221000Y-28440000D03*
D34*
X85221000Y-27940000D03*
D33*
X85221000Y-27440000D03*
X85221000Y-26940000D03*
D25*
X81500000Y-72500000D03*
D35*
X92680000Y-42430000D03*
X92680000Y-55570000D03*
X98360000Y-42430000D03*
X98360000Y-55570000D03*
D28*
X95650000Y-45500000D03*
X95650000Y-48000000D03*
X95650000Y-50000000D03*
X95650000Y-52500000D03*
X93030000Y-45500000D03*
X93030000Y-48000000D03*
X93030000Y-50000000D03*
X93030000Y-52500000D03*
D36*
X86896000Y-50546000D03*
X87856000Y-50546000D03*
D25*
X23500000Y-72500000D03*
D28*
X93030000Y-70500000D03*
X93030000Y-68000000D03*
X93030000Y-66000000D03*
X93030000Y-63500000D03*
X95650000Y-70500000D03*
X95650000Y-68000000D03*
X95650000Y-66000000D03*
X95650000Y-63500000D03*
D35*
X98360000Y-73570000D03*
X98360000Y-60430000D03*
X92680000Y-73570000D03*
X92680000Y-60430000D03*
D14*
X24636000Y-62484000D03*
X25656000Y-62484000D03*
D16*
X47520000Y-70055000D03*
D17*
X47320000Y-71280000D03*
D16*
X47120000Y-70055000D03*
D17*
X46920000Y-71280000D03*
D16*
X46720000Y-70055000D03*
D17*
X46520000Y-71280000D03*
D16*
X46320000Y-70055000D03*
D17*
X46120000Y-71280000D03*
D16*
X45920000Y-70055000D03*
D17*
X45720000Y-71280000D03*
D16*
X45520000Y-70055000D03*
D17*
X45320000Y-71280000D03*
D16*
X45120000Y-70055000D03*
D17*
X44920000Y-71280000D03*
D16*
X44720000Y-70055000D03*
D17*
X44520000Y-71280000D03*
D16*
X44320000Y-70055000D03*
D17*
X44120000Y-71280000D03*
D16*
X43920000Y-70055000D03*
D18*
X48820000Y-71470000D03*
X48820000Y-74830000D03*
X42620000Y-71470000D03*
X42620000Y-74830000D03*
D37*
X38100000Y-71623000D03*
D38*
X38100000Y-74163000D03*
D37*
X87528000Y-71628000D03*
D38*
X87528000Y-74168000D03*
D39*
X30000000Y-64760000D03*
X78000000Y-64760000D03*
X30000000Y-31760000D03*
X78000000Y-31760000D03*
D40*
X61300000Y-29760000D03*
X61300000Y-32840000D03*
X60900000Y-29760000D03*
X60900000Y-32840000D03*
X60500000Y-29760000D03*
X60500000Y-32840000D03*
X60100000Y-29760000D03*
X60100000Y-32840000D03*
X59700000Y-29760000D03*
X59700000Y-32840000D03*
X59300000Y-29760000D03*
X59300000Y-32840000D03*
X58900000Y-29760000D03*
X58900000Y-32840000D03*
X58500000Y-29760000D03*
X58500000Y-32840000D03*
X58100000Y-29760000D03*
X58100000Y-32840000D03*
X57700000Y-29760000D03*
X57700000Y-32840000D03*
X57300000Y-29760000D03*
X57300000Y-32840000D03*
X56900000Y-29760000D03*
X56900000Y-32840000D03*
X56500000Y-29760000D03*
X56500000Y-32840000D03*
X56100000Y-29760000D03*
X56100000Y-32840000D03*
X55700000Y-29760000D03*
X55700000Y-32840000D03*
X55300000Y-29760000D03*
X55300000Y-32840000D03*
X54900000Y-29760000D03*
X54900000Y-32840000D03*
X54500000Y-29760000D03*
X54500000Y-32840000D03*
X54100000Y-29760000D03*
X54100000Y-32840000D03*
X53700000Y-29760000D03*
X53700000Y-32840000D03*
X53300000Y-29760000D03*
X53300000Y-32840000D03*
X52900000Y-29760000D03*
X52900000Y-32840000D03*
X52500000Y-29760000D03*
X52500000Y-32840000D03*
X52100000Y-29760000D03*
X52100000Y-32840000D03*
X51700000Y-29760000D03*
X51700000Y-32840000D03*
X51300000Y-29760000D03*
X51300000Y-32840000D03*
X50900000Y-29760000D03*
X50900000Y-32840000D03*
X50500000Y-29760000D03*
X50500000Y-32840000D03*
X50100000Y-29760000D03*
X50100000Y-32840000D03*
X49700000Y-29760000D03*
X49700000Y-32840000D03*
X49300000Y-29760000D03*
X49300000Y-32840000D03*
X48900000Y-29760000D03*
X48900000Y-32840000D03*
X48500000Y-29760000D03*
X48500000Y-32840000D03*
X48100000Y-29760000D03*
X48100000Y-32840000D03*
X47700000Y-29760000D03*
X47700000Y-32840000D03*
X47300000Y-29760000D03*
X47300000Y-32840000D03*
X46900000Y-29760000D03*
X46900000Y-32840000D03*
X46500000Y-29760000D03*
X46500000Y-32840000D03*
X46100000Y-29760000D03*
X46100000Y-32840000D03*
X45700000Y-29760000D03*
X45700000Y-32840000D03*
X45300000Y-29760000D03*
X45300000Y-32840000D03*
X44900000Y-29760000D03*
X44900000Y-32840000D03*
X44500000Y-29760000D03*
X44500000Y-32840000D03*
X44100000Y-29760000D03*
X44100000Y-32840000D03*
X43700000Y-29760000D03*
X43700000Y-32840000D03*
X43300000Y-29760000D03*
X43300000Y-32840000D03*
X42900000Y-29760000D03*
X42900000Y-32840000D03*
X42500000Y-29760000D03*
X42500000Y-32840000D03*
X42100000Y-29760000D03*
X42100000Y-32840000D03*
X41700000Y-29760000D03*
X41700000Y-32840000D03*
X61300000Y-63680000D03*
X61300000Y-66760000D03*
X60900000Y-63680000D03*
X60900000Y-66760000D03*
X60500000Y-63680000D03*
X60500000Y-66760000D03*
X60100000Y-63680000D03*
X60100000Y-66760000D03*
X59700000Y-63680000D03*
X59700000Y-66760000D03*
X59300000Y-63680000D03*
X59300000Y-66760000D03*
X58900000Y-63680000D03*
X58900000Y-66760000D03*
X58500000Y-63680000D03*
X58500000Y-66760000D03*
X58100000Y-63680000D03*
X58100000Y-66760000D03*
X57700000Y-63680000D03*
X57700000Y-66760000D03*
X57300000Y-63680000D03*
X57300000Y-66760000D03*
X56900000Y-63680000D03*
X56900000Y-66760000D03*
X56500000Y-63680000D03*
X56500000Y-66760000D03*
X56100000Y-63680000D03*
X56100000Y-66760000D03*
X55700000Y-63680000D03*
X55700000Y-66760000D03*
X55300000Y-63680000D03*
X55300000Y-66760000D03*
X54900000Y-63680000D03*
X54900000Y-66760000D03*
X54500000Y-63680000D03*
X54500000Y-66760000D03*
X54100000Y-63680000D03*
X54100000Y-66760000D03*
X53700000Y-63680000D03*
X53700000Y-66760000D03*
X53300000Y-63680000D03*
X53300000Y-66760000D03*
X52900000Y-63680000D03*
X52900000Y-66760000D03*
X52500000Y-63680000D03*
X52500000Y-66760000D03*
X52100000Y-63680000D03*
X52100000Y-66760000D03*
X51700000Y-63680000D03*
X51700000Y-66760000D03*
X51300000Y-63680000D03*
X51300000Y-66760000D03*
X50900000Y-63680000D03*
X50900000Y-66760000D03*
X50500000Y-63680000D03*
X50500000Y-66760000D03*
X50100000Y-63680000D03*
X50100000Y-66760000D03*
X49700000Y-63680000D03*
X49700000Y-66760000D03*
X49300000Y-63680000D03*
X49300000Y-66760000D03*
X48900000Y-63680000D03*
X48900000Y-66760000D03*
X48500000Y-63680000D03*
X48500000Y-66760000D03*
X48100000Y-63680000D03*
X48100000Y-66760000D03*
X47700000Y-63680000D03*
X47700000Y-66760000D03*
X47300000Y-63680000D03*
X47300000Y-66760000D03*
X46900000Y-63680000D03*
X46900000Y-66760000D03*
X46500000Y-63680000D03*
X46500000Y-66760000D03*
X46100000Y-63680000D03*
X46100000Y-66760000D03*
X45700000Y-63680000D03*
X45700000Y-66760000D03*
X45300000Y-63680000D03*
X45300000Y-66760000D03*
X44900000Y-63680000D03*
X44900000Y-66760000D03*
X44500000Y-63680000D03*
X44500000Y-66760000D03*
X44100000Y-63680000D03*
X44100000Y-66760000D03*
X43700000Y-63680000D03*
X43700000Y-66760000D03*
X43300000Y-63680000D03*
X43300000Y-66760000D03*
X42900000Y-63680000D03*
X42900000Y-66760000D03*
X42500000Y-63680000D03*
X42500000Y-66760000D03*
X42100000Y-63680000D03*
X42100000Y-66760000D03*
X41700000Y-63680000D03*
X41700000Y-66760000D03*
D41*
X87630000Y-54676000D03*
X87630000Y-56576000D03*
D33*
X84705000Y-32020000D03*
X84705000Y-32520000D03*
D34*
X84705000Y-33020000D03*
D33*
X84705000Y-33520000D03*
X84705000Y-34020000D03*
X85475000Y-34020000D03*
X85475000Y-33520000D03*
D34*
X85475000Y-33020000D03*
D33*
X85475000Y-32520000D03*
X85475000Y-32020000D03*
D20*
X28450000Y-26924000D03*
X27430000Y-26924000D03*
D42*
X23139500Y-62484000D03*
X21564500Y-62484000D03*
D43*
X29899988Y-72210000D03*
X30549988Y-72210000D03*
X31199988Y-72210000D03*
X31849988Y-72210000D03*
X32499988Y-72210000D03*
D44*
X28349988Y-71970000D03*
D45*
X28474988Y-75030000D03*
D44*
X34099988Y-71970000D03*
D46*
X28774988Y-72000000D03*
D45*
X33924988Y-75030000D03*
D46*
X33624988Y-72000000D03*
D47*
X28474988Y-74100000D03*
D48*
X34187488Y-73330000D03*
X28212488Y-73330000D03*
D47*
X33924988Y-74100000D03*
D20*
X78234000Y-54356000D03*
X77214000Y-54356000D03*
X28448000Y-28192000D03*
X27428000Y-28192000D03*
D42*
X23139500Y-60960000D03*
X21564500Y-60960000D03*
D37*
X24404000Y-28214000D03*
D38*
X21864000Y-28214000D03*
X24404000Y-30754000D03*
X21864000Y-30754000D03*
D49*
X85487500Y-52292000D03*
X85487500Y-51792000D03*
X85487500Y-51292000D03*
X85487500Y-50792000D03*
X85487500Y-50292000D03*
X85487500Y-49792000D03*
X85487500Y-49292000D03*
X85487500Y-48792000D03*
X85487500Y-48292000D03*
D50*
X84550000Y-47354500D03*
X84050000Y-47354500D03*
X83550000Y-47354500D03*
X83050000Y-47354500D03*
X82550000Y-47354500D03*
X82050000Y-47354500D03*
X81550000Y-47354500D03*
X81050000Y-47354500D03*
X80550000Y-47354500D03*
D49*
X79612500Y-48292000D03*
X79612500Y-48792000D03*
X79612500Y-49292000D03*
X79612500Y-49792000D03*
X79612500Y-50292000D03*
X79612500Y-50792000D03*
X79612500Y-51292000D03*
X79612500Y-51792000D03*
X79612500Y-52292000D03*
D50*
X80550000Y-53229500D03*
X81050000Y-53229500D03*
X81550000Y-53229500D03*
X82050000Y-53229500D03*
X82550000Y-53229500D03*
X83050000Y-53229500D03*
X83550000Y-53229500D03*
X84050000Y-53229500D03*
X84550000Y-53229500D03*
D51*
X82550000Y-50292000D03*
D25*
X23500000Y-23500000D03*
D52*
X84963000Y-56416000D03*
X84963000Y-57376000D03*
D37*
X28369997Y-24770001D03*
D38*
X28369997Y-22230001D03*
X30909997Y-24770001D03*
X30909997Y-22230001D03*
X33449997Y-24770001D03*
X33449997Y-22230001D03*
X35989997Y-24770001D03*
X35989997Y-22230001D03*
X38529997Y-24770001D03*
X38529997Y-22230001D03*
X41069997Y-24770001D03*
X41069997Y-22230001D03*
X43609997Y-24770001D03*
X43609997Y-22230001D03*
X46149997Y-24770001D03*
X46149997Y-22230001D03*
X48689997Y-24770001D03*
X48689997Y-22230001D03*
X51229997Y-24770001D03*
X51229997Y-22230001D03*
X53769997Y-24770001D03*
X53769997Y-22230001D03*
X56309997Y-24770001D03*
X56309997Y-22230001D03*
X58849997Y-24770001D03*
X58849997Y-22230001D03*
X61389997Y-24770001D03*
X61389997Y-22230001D03*
X63929997Y-24770001D03*
X63929997Y-22230001D03*
X66469997Y-24770001D03*
X66469997Y-22230001D03*
X69009997Y-24770001D03*
X69009997Y-22230001D03*
X71549997Y-24770001D03*
X71549997Y-22230001D03*
X74089997Y-24770001D03*
X74089997Y-22230001D03*
X76629997Y-24770001D03*
X76629997Y-22230001D03*
D15*
X85344000Y-45819000D03*
X85344000Y-44859000D03*
D53*
X87188000Y-46228000D03*
X89088000Y-46228000D03*
D37*
X24404000Y-33294000D03*
D38*
X21864000Y-33294000D03*
X24404000Y-35834000D03*
X21864000Y-35834000D03*
M02*
