M48
; DRILL file {KiCad (6.0.2-0)} date Tuesday, April 26, 2022 at 04:32:36 PM
; FORMAT={-:-/ absolute / metric / decimal}
; #@! TF.CreationDate,2022-04-26T16:32:36-05:00
; #@! TF.GenerationSoftware,Kicad,Pcbnew,(6.0.2-0)
; #@! TF.FileFunction,Plated,1,4,PTH
FMAT,2
METRIC
; #@! TA.AperFunction,Plated,PTH,ViaDrill
T1C0.200
; #@! TA.AperFunction,Plated,PTH,ViaDrill
T2C0.400
; #@! TA.AperFunction,Plated,PTH,ViaDrill
T3C0.500
; #@! TA.AperFunction,Plated,PTH,ViaDrill
T4C0.508
; #@! TA.AperFunction,Plated,PTH,ComponentDrill
T5C0.650
; #@! TA.AperFunction,Plated,PTH,ComponentDrill
T6C0.700
; #@! TA.AperFunction,Plated,PTH,ComponentDrill
T7C0.900
; #@! TA.AperFunction,Plated,PTH,ComponentDrill
T8C1.000
; #@! TA.AperFunction,Plated,PTH,ComponentDrill
T9C1.020
; #@! TA.AperFunction,Plated,PTH,ComponentDrill
T10C1.700
; #@! TA.AperFunction,Plated,PTH,ComponentDrill
T11C2.300
%
G90
G05
T1
X24.003Y-60.96
X24.892Y-63.5
X26.67Y-39.37
X27.178Y-61.976
X27.432Y-39.37
X27.432Y-51.943
X27.686Y-41.656
X28.448Y-50.927
X28.956Y-38.862
X28.956Y-57.15
X29.337Y-37.465
X30.226Y-37.465
X30.48Y-38.735
X31.877Y-37.592
X32.512Y-36.957
X33.909Y-26.289
X33.909Y-60.452
X34.29Y-30.607
X34.417Y-36.83
X34.544Y-26.924
X34.671Y-62.865
X34.675Y-60.702
X35.052Y-33.147
X35.052Y-63.754
X35.175Y-60.202
X35.179Y-37.592
X35.306Y-59.436
X35.433Y-27.432
X35.56Y-65.659
X36.068Y-62.484
X36.068Y-64.008
X36.195Y-26.289
X36.83Y-63.881
X36.957Y-26.924
X36.957Y-65.405
X37.211Y-29.845
X37.211Y-30.988
X37.465Y-62.865
X37.592Y-33.655
X37.846Y-60.579
X37.846Y-61.341
X37.973Y-29.845
X38.354Y-34.417
X38.354Y-40.259
X38.735Y-29.845
X38.735Y-63.119
X39.116Y-39.497
X39.751Y-34.29
X39.751Y-35.179
X39.751Y-36.068
X39.878Y-38.735
X40.259Y-44.704
X40.326Y-48.447
X40.386Y-67.437
X40.513Y-34.671
X40.64Y-35.941
X40.771Y-46.986
X40.827Y-47.946
X40.894Y-29.845
X40.894Y-66.929
X41.021Y-69.469
X41.021Y-70.485
X41.148Y-34.163
X41.148Y-35.306
X41.148Y-37.465
X41.148Y-43.815
X41.271Y-46.486
X41.402Y-64.897
X41.91Y-36.957
X42.037Y-43.053
X42.037Y-45.847
X42.037Y-46.609
X42.164Y-52.959
X42.164Y-67.691
X42.672Y-36.957
X42.672Y-45.212
X42.799Y-42.291
X42.803Y-48.637
X43.053Y-55.372
X43.18Y-54.483
X43.303Y-48.137
X43.307Y-41.529
X43.434Y-44.45
X43.561Y-40.767
X43.561Y-67.564
X44.069Y-52.832
X44.323Y-67.564
X44.45Y-34.925
X44.45Y-39.243
X44.704Y-40.386
X44.704Y-73.025
X45.085Y-35.433
X45.085Y-39.751
X45.085Y-72.263
X45.466Y-72.898
X45.593Y-68.199
X45.874Y-67.542
X45.974Y-72.263
X46.582Y-67.542
X46.736Y-62.23
X46.736Y-72.263
X46.863Y-68.834
X47.117Y-72.898
X47.146Y-62.852
X47.498Y-72.263
X47.625Y-64.516
X47.854Y-62.852
X47.879Y-28.575
X47.879Y-33.782
X47.879Y-34.544
X47.879Y-35.433
X48.133Y-57.15
X48.133Y-61.468
X48.346Y-62.23
X48.346Y-67.57
X48.514Y-28.956
X48.641Y-36.83
X49.054Y-62.23
X49.054Y-67.57
X49.276Y-57.15
X49.276Y-61.468
X49.546Y-62.857
X49.911Y-31.496
X50.038Y-65.024
X50.254Y-62.857
X50.419Y-32.004
X50.673Y-62.23
X50.927Y-31.496
X51.054Y-67.564
X51.181Y-30.607
X51.181Y-65.532
X51.308Y-64.77
X51.689Y-31.496
X51.816Y-26.162
X51.816Y-67.564
X52.197Y-32.004
X52.451Y-26.797
X52.578Y-37.592
X52.578Y-65.532
X52.705Y-31.496
X53.086Y-64.516
X53.086Y-70.739
X53.213Y-32.004
X53.213Y-36.957
X53.213Y-58.801
X53.594Y-39.751
X53.721Y-31.496
X53.848Y-36.195
X53.975Y-53.975
X53.975Y-70.739
X54.102Y-66.04
X54.229Y-32.004
X54.356Y-26.797
X54.483Y-34.163
X54.483Y-35.56
X54.61Y-38.1
X54.61Y-53.467
X54.737Y-30.48
X54.737Y-31.242
X54.737Y-70.739
X54.991Y-26.162
X55.245Y-32.004
X55.245Y-53.975
X55.372Y-66.04
X55.626Y-37.211
X55.626Y-38.1
X55.753Y-31.496
X56.261Y-32.004
X56.642Y-36.322
X56.642Y-37.211
X56.642Y-38.1
X56.769Y-31.496
X57.15Y-34.544
X57.15Y-66.04
X57.277Y-32.004
X57.531Y-35.306
X57.531Y-36.322
X57.531Y-37.211
X57.531Y-38.1
X57.785Y-27.432
X57.785Y-31.496
X58.039Y-66.04
X58.293Y-32.004
X58.801Y-31.496
X58.801Y-72.263
X58.928Y-66.04
X58.928Y-69.088
X59.055Y-28.978
X59.055Y-73.025
X59.563Y-68.199
X59.583Y-72.238
X59.817Y-66.04
X59.944Y-28.321
X59.944Y-52.578
X59.944Y-72.898
X60.071Y-68.707
X60.325Y-72.263
X60.452Y-69.342
X60.706Y-72.898
X60.833Y-66.04
X61.087Y-72.263
X61.722Y-33.909
X61.722Y-34.798
X61.722Y-67.818
X61.849Y-29.972
X61.849Y-69.088
X62.357Y-29.464
X62.611Y-33.909
X62.611Y-34.798
X62.865Y-57.912
X62.865Y-58.928
X62.992Y-61.468
X63.119Y-51.435
X63.5Y-33.909
X63.5Y-34.798
X63.881Y-51.435
X63.881Y-52.197
X64.389Y-34.798
X64.643Y-51.435
X64.643Y-52.197
X64.643Y-52.959
X65.405Y-51.435
X65.405Y-52.197
X65.405Y-52.959
X66.167Y-51.435
X66.167Y-52.197
X66.167Y-52.959
X66.929Y-51.435
X66.929Y-52.197
X66.929Y-52.959
X67.691Y-51.435
X67.691Y-52.197
X67.691Y-52.959
X68.453Y-51.435
X68.453Y-52.197
X68.453Y-52.959
X69.215Y-49.911
X69.215Y-50.673
X69.215Y-51.435
X69.215Y-52.197
X69.215Y-52.959
X69.977Y-37.465
X69.977Y-49.911
X69.977Y-50.673
X69.977Y-51.435
X69.977Y-52.197
X69.977Y-52.959
X70.415Y-62.736
X70.739Y-37.465
X70.739Y-52.197
X71.501Y-37.465
X72.263Y-37.465
X72.898Y-44.704
X73.025Y-37.465
X73.025Y-38.227
X73.025Y-38.989
X73.025Y-39.751
X73.787Y-37.465
X73.787Y-38.227
X73.787Y-38.989
X73.787Y-39.751
X74.549Y-37.465
X74.549Y-38.227
X75.184Y-27.305
X75.311Y-38.227
X77.724Y-49.149
X77.851Y-45.593
X78.867Y-27.305
X82.296Y-29.972
X82.296Y-30.734
X82.296Y-31.623
X82.296Y-32.512
X83.185Y-29.972
X83.185Y-30.734
X83.185Y-31.623
X83.82Y-33.02
X83.947Y-29.972
X83.947Y-30.734
X84.836Y-29.972
X84.836Y-30.734
X85.725Y-29.972
X85.725Y-30.734
X86.36Y-33.02
X87.376Y-49.911
X88.773Y-23.876
X89.535Y-23.876
X89.662Y-57.023
X89.662Y-61.341
X90.551Y-64.262
X91.567Y-65.278
X91.694Y-49.657
T2
X26.289Y-28.448
X26.289Y-33.909
X26.289Y-34.925
X27.305Y-34.925
X28.702Y-70.104
X44.577Y-28.702
X45.593Y-28.702
X50.546Y-71.12
X50.546Y-72.136
X50.546Y-74.168
X50.546Y-75.184
X51.562Y-71.12
X51.562Y-72.136
X51.562Y-74.168
X51.562Y-75.184
X52.578Y-72.136
X52.578Y-74.168
X52.578Y-75.184
X53.594Y-72.136
X53.594Y-74.168
X53.594Y-75.184
X54.61Y-72.136
X54.61Y-74.168
X54.61Y-75.184
X61.468Y-62.23
X77.978Y-25.654
X79.121Y-52.959
X80.899Y-46.228
X81.534Y-49.276
X81.534Y-50.292
X81.534Y-51.308
X82.55Y-49.276
X82.55Y-50.292
X82.55Y-51.308
X83.185Y-46.228
X83.566Y-49.276
X83.566Y-50.292
X83.566Y-51.308
X88.9Y-50.038
X88.9Y-51.054
T3
X24.003Y-48.641
X27.686Y-54.356
X30.353Y-53.086
X32.131Y-26.162
X41.656Y-61.595
X44.704Y-33.909
X44.958Y-54.864
X55.499Y-59.563
X66.421Y-57.404
X66.675Y-59.944
X67.437Y-54.864
X71.12Y-55.245
X72.39Y-55.245
X79.248Y-45.085
X80.01Y-44.069
X81.28Y-44.069
X85.979Y-47.117
X86.233Y-54.102
T4
X31.496Y-60.452
X56.007Y-46.482
X58.547Y-42.291
X59.817Y-38.354
X60.071Y-44.831
X66.04Y-37.846
X67.183Y-40.513
X69.469Y-47.752
X71.247Y-49.276
X72.39Y-53.721
X73.025Y-49.276
X77.597Y-43.688
T7
X88.36Y-25.805
X88.36Y-28.345
X88.36Y-30.885
X88.36Y-33.425
X88.36Y-35.965
X90.9Y-24.535
X90.9Y-27.075
X90.9Y-29.615
X90.9Y-32.155
X90.9Y-34.695
X93.42Y-24.535
X93.42Y-35.965
X94.69Y-27.075
X94.69Y-33.425
T8
X21.864Y-28.214
X21.864Y-30.754
X21.864Y-33.294
X21.864Y-35.834
X24.404Y-28.214
X24.404Y-30.754
X24.404Y-33.294
X24.404Y-35.834
X28.37Y-22.23
X28.37Y-24.77
X30.91Y-22.23
X30.91Y-24.77
X33.45Y-22.23
X33.45Y-24.77
X35.99Y-22.23
X35.99Y-24.77
X38.1Y-71.623
X38.1Y-74.163
X38.53Y-22.23
X38.53Y-24.77
X41.07Y-22.23
X41.07Y-24.77
X43.61Y-22.23
X43.61Y-24.77
X46.15Y-22.23
X46.15Y-24.77
X48.69Y-22.23
X48.69Y-24.77
X51.23Y-22.23
X51.23Y-24.77
X53.77Y-22.23
X53.77Y-24.77
X56.31Y-22.23
X56.31Y-24.77
X58.85Y-22.23
X58.85Y-24.77
X61.39Y-22.23
X61.39Y-24.77
X63.93Y-22.23
X63.93Y-24.77
X66.47Y-22.23
X66.47Y-24.77
X69.01Y-22.23
X69.01Y-24.77
X71.55Y-22.23
X71.55Y-24.77
X74.09Y-22.23
X74.09Y-24.77
X76.63Y-22.23
X76.63Y-24.77
X87.528Y-71.628
X87.528Y-74.168
X93.03Y-45.5
X93.03Y-48.0
X93.03Y-50.0
X93.03Y-52.5
X93.03Y-63.5
X93.03Y-66.0
X93.03Y-68.0
X93.03Y-70.5
X95.65Y-45.5
X95.65Y-48.0
X95.65Y-50.0
X95.65Y-52.5
X95.65Y-63.5
X95.65Y-66.0
X95.65Y-68.0
X95.65Y-70.5
T9
X101.31Y-23.62
X101.31Y-26.16
X101.31Y-34.34
X101.31Y-36.88
T10
X94.2Y-22.375
X94.2Y-38.125
T11
X92.68Y-42.43
X92.68Y-55.57
X92.68Y-60.43
X92.68Y-73.57
X98.36Y-42.43
X98.36Y-55.57
X98.36Y-60.43
X98.36Y-73.57
T5
X28.775Y-72.2G85X28.775Y-71.8
G05
X33.625Y-72.2G85X33.625Y-71.8
G05
X42.62Y-70.945G85X42.62Y-71.995
G05
X42.62Y-74.305G85X42.62Y-75.355
G05
X48.82Y-70.945G85X48.82Y-71.995
G05
X48.82Y-74.305G85X48.82Y-75.355
G05
X56.4Y-70.945G85X56.4Y-71.995
G05
X56.4Y-74.305G85X56.4Y-75.355
G05
X62.6Y-70.945G85X62.6Y-71.995
G05
X62.6Y-74.305G85X62.6Y-75.355
G05
T6
X28.475Y-75.28G85X28.475Y-74.78
G05
X33.925Y-75.28G85X33.925Y-74.78
G05
T0
M30
