%FSLAX45Y45*%
G04 Gerber Fmt 4.5, Leading zero omitted, Abs format (unit mm)*
G04 Created by KiCad (PCBNEW (6.0.2-0)) date 2022-04-26 16:32:37*
%MOMM*%
%LPD*%
G01*
G04 APERTURE LIST*
%TA.AperFunction,Profile*%
%ADD10C,0.100000*%
%TD*%
%ADD11C,0.200000*%
%ADD12C,0.270000*%
%ADD13C,0.320000*%
G04 APERTURE END LIST*
D10*
X10500000Y-2300000D02*
G75*
G03*
X10200000Y-2000000I-300000J0D01*
G01*
X2300000Y-2000000D02*
G75*
G03*
X2000000Y-2300000I0J-300000D01*
G01*
X2000000Y-7300000D02*
G75*
G03*
X2300000Y-7600000I300000J0D01*
G01*
X10200000Y-7600000D02*
G75*
G03*
X10500000Y-7300000I0J300000D01*
G01*
X2000000Y-7300000D02*
X2000000Y-2300000D01*
X10500000Y-2300000D02*
X10500000Y-7300000D01*
X10200000Y-7600000D02*
X2300000Y-7600000D01*
X2300000Y-2000000D02*
X10200000Y-2000000D01*
D11*
D12*
X2215000Y-2215000D02*
X2485000Y-2485000D01*
X2485000Y-2215000D02*
X2215000Y-2485000D01*
X2215000Y-7115000D02*
X2485000Y-7385000D01*
X2485000Y-7115000D02*
X2215000Y-7385000D01*
X2865000Y-3041000D02*
X3135000Y-3311000D01*
X3135000Y-3041000D02*
X2865000Y-3311000D01*
X2865000Y-6341000D02*
X3135000Y-6611000D01*
X3135000Y-6341000D02*
X2865000Y-6611000D01*
X7665000Y-3041000D02*
X7935000Y-3311000D01*
X7935000Y-3041000D02*
X7665000Y-3311000D01*
X7665000Y-6341000D02*
X7935000Y-6611000D01*
X7935000Y-6341000D02*
X7665000Y-6611000D01*
X8015000Y-2215000D02*
X8285000Y-2485000D01*
X8285000Y-2215000D02*
X8015000Y-2485000D01*
X8015000Y-7115000D02*
X8285000Y-7385000D01*
X8285000Y-7115000D02*
X8015000Y-7385000D01*
D13*
X9885000Y-2453500D02*
G75*
G03*
X9885000Y-2453500I-160000J0D01*
G01*
X9885000Y-3596500D02*
G75*
G03*
X9885000Y-3596500I-160000J0D01*
G01*
D11*
X2252619Y-7915476D02*
X2252619Y-7715476D01*
X2300238Y-7715476D01*
X2328810Y-7725000D01*
X2347857Y-7744048D01*
X2357381Y-7763095D01*
X2366905Y-7801190D01*
X2366905Y-7829762D01*
X2357381Y-7867857D01*
X2347857Y-7886905D01*
X2328810Y-7905952D01*
X2300238Y-7915476D01*
X2252619Y-7915476D01*
X2452619Y-7915476D02*
X2452619Y-7782143D01*
X2452619Y-7820238D02*
X2462143Y-7801190D01*
X2471667Y-7791667D01*
X2490714Y-7782143D01*
X2509762Y-7782143D01*
X2576429Y-7915476D02*
X2576429Y-7782143D01*
X2576429Y-7715476D02*
X2566905Y-7725000D01*
X2576429Y-7734524D01*
X2585952Y-7725000D01*
X2576429Y-7715476D01*
X2576429Y-7734524D01*
X2700238Y-7915476D02*
X2681190Y-7905952D01*
X2671667Y-7886905D01*
X2671667Y-7715476D01*
X2805000Y-7915476D02*
X2785952Y-7905952D01*
X2776429Y-7886905D01*
X2776429Y-7715476D01*
X3033571Y-7915476D02*
X3033571Y-7715476D01*
X3100238Y-7858333D01*
X3166905Y-7715476D01*
X3166905Y-7915476D01*
X3347857Y-7915476D02*
X3347857Y-7810714D01*
X3338333Y-7791667D01*
X3319286Y-7782143D01*
X3281190Y-7782143D01*
X3262143Y-7791667D01*
X3347857Y-7905952D02*
X3328809Y-7915476D01*
X3281190Y-7915476D01*
X3262143Y-7905952D01*
X3252619Y-7886905D01*
X3252619Y-7867857D01*
X3262143Y-7848809D01*
X3281190Y-7839286D01*
X3328809Y-7839286D01*
X3347857Y-7829762D01*
X3443095Y-7782143D02*
X3443095Y-7982143D01*
X3443095Y-7791667D02*
X3462143Y-7782143D01*
X3500238Y-7782143D01*
X3519286Y-7791667D01*
X3528809Y-7801190D01*
X3538333Y-7820238D01*
X3538333Y-7877381D01*
X3528809Y-7896428D01*
X3519286Y-7905952D01*
X3500238Y-7915476D01*
X3462143Y-7915476D01*
X3443095Y-7905952D01*
X3624048Y-7896428D02*
X3633571Y-7905952D01*
X3624048Y-7915476D01*
X3614524Y-7905952D01*
X3624048Y-7896428D01*
X3624048Y-7915476D01*
X3624048Y-7791667D02*
X3633571Y-7801190D01*
X3624048Y-7810714D01*
X3614524Y-7801190D01*
X3624048Y-7791667D01*
X3624048Y-7810714D01*
X1795000Y-8145000D02*
X1995000Y-8345000D01*
X1995000Y-8145000D02*
X1795000Y-8345000D01*
X2243095Y-8154524D02*
X2252619Y-8145000D01*
X2271667Y-8135476D01*
X2319286Y-8135476D01*
X2338333Y-8145000D01*
X2347857Y-8154524D01*
X2357381Y-8173571D01*
X2357381Y-8192619D01*
X2347857Y-8221190D01*
X2233571Y-8335476D01*
X2357381Y-8335476D01*
X2443095Y-8316428D02*
X2452619Y-8325952D01*
X2443095Y-8335476D01*
X2433571Y-8325952D01*
X2443095Y-8316428D01*
X2443095Y-8335476D01*
X2519286Y-8135476D02*
X2652619Y-8135476D01*
X2566905Y-8335476D01*
X2766905Y-8135476D02*
X2785952Y-8135476D01*
X2805000Y-8145000D01*
X2814524Y-8154524D01*
X2824048Y-8173571D01*
X2833571Y-8211667D01*
X2833571Y-8259286D01*
X2824048Y-8297381D01*
X2814524Y-8316428D01*
X2805000Y-8325952D01*
X2785952Y-8335476D01*
X2766905Y-8335476D01*
X2747857Y-8325952D01*
X2738333Y-8316428D01*
X2728810Y-8297381D01*
X2719286Y-8259286D01*
X2719286Y-8211667D01*
X2728810Y-8173571D01*
X2738333Y-8154524D01*
X2747857Y-8145000D01*
X2766905Y-8135476D01*
X2957381Y-8135476D02*
X2976428Y-8135476D01*
X2995476Y-8145000D01*
X3005000Y-8154524D01*
X3014524Y-8173571D01*
X3024048Y-8211667D01*
X3024048Y-8259286D01*
X3014524Y-8297381D01*
X3005000Y-8316428D01*
X2995476Y-8325952D01*
X2976428Y-8335476D01*
X2957381Y-8335476D01*
X2938333Y-8325952D01*
X2928809Y-8316428D01*
X2919286Y-8297381D01*
X2909762Y-8259286D01*
X2909762Y-8211667D01*
X2919286Y-8173571D01*
X2928809Y-8154524D01*
X2938333Y-8145000D01*
X2957381Y-8135476D01*
X3109762Y-8335476D02*
X3109762Y-8202143D01*
X3109762Y-8221190D02*
X3119286Y-8211667D01*
X3138333Y-8202143D01*
X3166905Y-8202143D01*
X3185952Y-8211667D01*
X3195476Y-8230714D01*
X3195476Y-8335476D01*
X3195476Y-8230714D02*
X3205000Y-8211667D01*
X3224048Y-8202143D01*
X3252619Y-8202143D01*
X3271667Y-8211667D01*
X3281190Y-8230714D01*
X3281190Y-8335476D01*
X3376428Y-8335476D02*
X3376428Y-8202143D01*
X3376428Y-8221190D02*
X3385952Y-8211667D01*
X3405000Y-8202143D01*
X3433571Y-8202143D01*
X3452619Y-8211667D01*
X3462143Y-8230714D01*
X3462143Y-8335476D01*
X3462143Y-8230714D02*
X3471667Y-8211667D01*
X3490714Y-8202143D01*
X3519286Y-8202143D01*
X3538333Y-8211667D01*
X3547857Y-8230714D01*
X3547857Y-8335476D01*
X3938333Y-8125952D02*
X3766905Y-8383095D01*
X4195476Y-8135476D02*
X4214524Y-8135476D01*
X4233571Y-8145000D01*
X4243095Y-8154524D01*
X4252619Y-8173571D01*
X4262143Y-8211667D01*
X4262143Y-8259286D01*
X4252619Y-8297381D01*
X4243095Y-8316428D01*
X4233571Y-8325952D01*
X4214524Y-8335476D01*
X4195476Y-8335476D01*
X4176428Y-8325952D01*
X4166905Y-8316428D01*
X4157381Y-8297381D01*
X4147857Y-8259286D01*
X4147857Y-8211667D01*
X4157381Y-8173571D01*
X4166905Y-8154524D01*
X4176428Y-8145000D01*
X4195476Y-8135476D01*
X4347857Y-8316428D02*
X4357381Y-8325952D01*
X4347857Y-8335476D01*
X4338333Y-8325952D01*
X4347857Y-8316428D01*
X4347857Y-8335476D01*
X4547857Y-8335476D02*
X4433571Y-8335476D01*
X4490714Y-8335476D02*
X4490714Y-8135476D01*
X4471667Y-8164048D01*
X4452619Y-8183095D01*
X4433571Y-8192619D01*
X4671667Y-8135476D02*
X4690714Y-8135476D01*
X4709762Y-8145000D01*
X4719286Y-8154524D01*
X4728810Y-8173571D01*
X4738333Y-8211667D01*
X4738333Y-8259286D01*
X4728810Y-8297381D01*
X4719286Y-8316428D01*
X4709762Y-8325952D01*
X4690714Y-8335476D01*
X4671667Y-8335476D01*
X4652619Y-8325952D01*
X4643095Y-8316428D01*
X4633571Y-8297381D01*
X4624048Y-8259286D01*
X4624048Y-8211667D01*
X4633571Y-8173571D01*
X4643095Y-8154524D01*
X4652619Y-8145000D01*
X4671667Y-8135476D01*
X4909762Y-8135476D02*
X4871667Y-8135476D01*
X4852619Y-8145000D01*
X4843095Y-8154524D01*
X4824048Y-8183095D01*
X4814524Y-8221190D01*
X4814524Y-8297381D01*
X4824048Y-8316428D01*
X4833571Y-8325952D01*
X4852619Y-8335476D01*
X4890714Y-8335476D01*
X4909762Y-8325952D01*
X4919286Y-8316428D01*
X4928810Y-8297381D01*
X4928810Y-8249762D01*
X4919286Y-8230714D01*
X4909762Y-8221190D01*
X4890714Y-8211667D01*
X4852619Y-8211667D01*
X4833571Y-8221190D01*
X4824048Y-8230714D01*
X4814524Y-8249762D01*
X4995476Y-8135476D02*
X5119286Y-8135476D01*
X5052619Y-8211667D01*
X5081190Y-8211667D01*
X5100238Y-8221190D01*
X5109762Y-8230714D01*
X5119286Y-8249762D01*
X5119286Y-8297381D01*
X5109762Y-8316428D01*
X5100238Y-8325952D01*
X5081190Y-8335476D01*
X5024048Y-8335476D01*
X5005000Y-8325952D01*
X4995476Y-8316428D01*
X5195476Y-8135476D02*
X5195476Y-8173571D01*
X5271667Y-8135476D02*
X5271667Y-8173571D01*
X5566905Y-8411667D02*
X5557381Y-8402143D01*
X5538333Y-8373571D01*
X5528810Y-8354524D01*
X5519286Y-8325952D01*
X5509762Y-8278333D01*
X5509762Y-8240238D01*
X5519286Y-8192619D01*
X5528810Y-8164048D01*
X5538333Y-8145000D01*
X5557381Y-8116428D01*
X5566905Y-8106905D01*
X5671667Y-8221190D02*
X5652619Y-8211667D01*
X5643095Y-8202143D01*
X5633571Y-8183095D01*
X5633571Y-8173571D01*
X5643095Y-8154524D01*
X5652619Y-8145000D01*
X5671667Y-8135476D01*
X5709762Y-8135476D01*
X5728809Y-8145000D01*
X5738333Y-8154524D01*
X5747857Y-8173571D01*
X5747857Y-8183095D01*
X5738333Y-8202143D01*
X5728809Y-8211667D01*
X5709762Y-8221190D01*
X5671667Y-8221190D01*
X5652619Y-8230714D01*
X5643095Y-8240238D01*
X5633571Y-8259286D01*
X5633571Y-8297381D01*
X5643095Y-8316428D01*
X5652619Y-8325952D01*
X5671667Y-8335476D01*
X5709762Y-8335476D01*
X5728809Y-8325952D01*
X5738333Y-8316428D01*
X5747857Y-8297381D01*
X5747857Y-8259286D01*
X5738333Y-8240238D01*
X5728809Y-8230714D01*
X5709762Y-8221190D01*
X5985952Y-8335476D02*
X5985952Y-8135476D01*
X6071667Y-8335476D02*
X6071667Y-8230714D01*
X6062143Y-8211667D01*
X6043095Y-8202143D01*
X6014524Y-8202143D01*
X5995476Y-8211667D01*
X5985952Y-8221190D01*
X6195476Y-8335476D02*
X6176428Y-8325952D01*
X6166905Y-8316428D01*
X6157381Y-8297381D01*
X6157381Y-8240238D01*
X6166905Y-8221190D01*
X6176428Y-8211667D01*
X6195476Y-8202143D01*
X6224048Y-8202143D01*
X6243095Y-8211667D01*
X6252619Y-8221190D01*
X6262143Y-8240238D01*
X6262143Y-8297381D01*
X6252619Y-8316428D01*
X6243095Y-8325952D01*
X6224048Y-8335476D01*
X6195476Y-8335476D01*
X6376428Y-8335476D02*
X6357381Y-8325952D01*
X6347857Y-8306905D01*
X6347857Y-8135476D01*
X6528809Y-8325952D02*
X6509762Y-8335476D01*
X6471667Y-8335476D01*
X6452619Y-8325952D01*
X6443095Y-8306905D01*
X6443095Y-8230714D01*
X6452619Y-8211667D01*
X6471667Y-8202143D01*
X6509762Y-8202143D01*
X6528809Y-8211667D01*
X6538333Y-8230714D01*
X6538333Y-8249762D01*
X6443095Y-8268809D01*
X6614524Y-8325952D02*
X6633571Y-8335476D01*
X6671667Y-8335476D01*
X6690714Y-8325952D01*
X6700238Y-8306905D01*
X6700238Y-8297381D01*
X6690714Y-8278333D01*
X6671667Y-8268809D01*
X6643095Y-8268809D01*
X6624048Y-8259286D01*
X6614524Y-8240238D01*
X6614524Y-8230714D01*
X6624048Y-8211667D01*
X6643095Y-8202143D01*
X6671667Y-8202143D01*
X6690714Y-8211667D01*
X6766905Y-8411667D02*
X6776428Y-8402143D01*
X6795476Y-8373571D01*
X6805000Y-8354524D01*
X6814524Y-8325952D01*
X6824048Y-8278333D01*
X6824048Y-8240238D01*
X6814524Y-8192619D01*
X6805000Y-8164048D01*
X6795476Y-8145000D01*
X6776428Y-8116428D01*
X6766905Y-8106905D01*
X7128809Y-8411667D02*
X7119286Y-8402143D01*
X7100238Y-8373571D01*
X7090714Y-8354524D01*
X7081190Y-8325952D01*
X7071667Y-8278333D01*
X7071667Y-8240238D01*
X7081190Y-8192619D01*
X7090714Y-8164048D01*
X7100238Y-8145000D01*
X7119286Y-8116428D01*
X7128809Y-8106905D01*
X7205000Y-8202143D02*
X7205000Y-8335476D01*
X7205000Y-8221190D02*
X7214524Y-8211667D01*
X7233571Y-8202143D01*
X7262143Y-8202143D01*
X7281190Y-8211667D01*
X7290714Y-8230714D01*
X7290714Y-8335476D01*
X7414524Y-8335476D02*
X7395476Y-8325952D01*
X7385952Y-8316428D01*
X7376428Y-8297381D01*
X7376428Y-8240238D01*
X7385952Y-8221190D01*
X7395476Y-8211667D01*
X7414524Y-8202143D01*
X7443095Y-8202143D01*
X7462143Y-8211667D01*
X7471667Y-8221190D01*
X7481190Y-8240238D01*
X7481190Y-8297381D01*
X7471667Y-8316428D01*
X7462143Y-8325952D01*
X7443095Y-8335476D01*
X7414524Y-8335476D01*
X7538333Y-8202143D02*
X7614524Y-8202143D01*
X7566905Y-8135476D02*
X7566905Y-8306905D01*
X7576428Y-8325952D01*
X7595476Y-8335476D01*
X7614524Y-8335476D01*
X7833571Y-8202143D02*
X7833571Y-8402143D01*
X7833571Y-8211667D02*
X7852619Y-8202143D01*
X7890714Y-8202143D01*
X7909762Y-8211667D01*
X7919286Y-8221190D01*
X7928809Y-8240238D01*
X7928809Y-8297381D01*
X7919286Y-8316428D01*
X7909762Y-8325952D01*
X7890714Y-8335476D01*
X7852619Y-8335476D01*
X7833571Y-8325952D01*
X8043095Y-8335476D02*
X8024048Y-8325952D01*
X8014524Y-8306905D01*
X8014524Y-8135476D01*
X8205000Y-8335476D02*
X8205000Y-8230714D01*
X8195476Y-8211667D01*
X8176428Y-8202143D01*
X8138333Y-8202143D01*
X8119286Y-8211667D01*
X8205000Y-8325952D02*
X8185952Y-8335476D01*
X8138333Y-8335476D01*
X8119286Y-8325952D01*
X8109762Y-8306905D01*
X8109762Y-8287857D01*
X8119286Y-8268809D01*
X8138333Y-8259286D01*
X8185952Y-8259286D01*
X8205000Y-8249762D01*
X8271667Y-8202143D02*
X8347857Y-8202143D01*
X8300238Y-8135476D02*
X8300238Y-8306905D01*
X8309762Y-8325952D01*
X8328809Y-8335476D01*
X8347857Y-8335476D01*
X8490714Y-8325952D02*
X8471667Y-8335476D01*
X8433571Y-8335476D01*
X8414524Y-8325952D01*
X8405000Y-8306905D01*
X8405000Y-8230714D01*
X8414524Y-8211667D01*
X8433571Y-8202143D01*
X8471667Y-8202143D01*
X8490714Y-8211667D01*
X8500238Y-8230714D01*
X8500238Y-8249762D01*
X8405000Y-8268809D01*
X8671667Y-8335476D02*
X8671667Y-8135476D01*
X8671667Y-8325952D02*
X8652619Y-8335476D01*
X8614524Y-8335476D01*
X8595476Y-8325952D01*
X8585952Y-8316428D01*
X8576429Y-8297381D01*
X8576429Y-8240238D01*
X8585952Y-8221190D01*
X8595476Y-8211667D01*
X8614524Y-8202143D01*
X8652619Y-8202143D01*
X8671667Y-8211667D01*
X8747857Y-8411667D02*
X8757381Y-8402143D01*
X8776429Y-8373571D01*
X8785952Y-8354524D01*
X8795476Y-8325952D01*
X8805000Y-8278333D01*
X8805000Y-8240238D01*
X8795476Y-8192619D01*
X8785952Y-8164048D01*
X8776429Y-8145000D01*
X8757381Y-8116428D01*
X8747857Y-8106905D01*
X1995000Y-8565000D02*
G75*
G03*
X1995000Y-8565000I-100000J0D01*
G01*
X2233571Y-8455476D02*
X2357381Y-8455476D01*
X2290714Y-8531667D01*
X2319286Y-8531667D01*
X2338333Y-8541190D01*
X2347857Y-8550714D01*
X2357381Y-8569762D01*
X2357381Y-8617381D01*
X2347857Y-8636429D01*
X2338333Y-8645952D01*
X2319286Y-8655476D01*
X2262143Y-8655476D01*
X2243095Y-8645952D01*
X2233571Y-8636429D01*
X2443095Y-8636429D02*
X2452619Y-8645952D01*
X2443095Y-8655476D01*
X2433571Y-8645952D01*
X2443095Y-8636429D01*
X2443095Y-8655476D01*
X2528810Y-8474524D02*
X2538333Y-8465000D01*
X2557381Y-8455476D01*
X2605000Y-8455476D01*
X2624048Y-8465000D01*
X2633571Y-8474524D01*
X2643095Y-8493571D01*
X2643095Y-8512619D01*
X2633571Y-8541190D01*
X2519286Y-8655476D01*
X2643095Y-8655476D01*
X2766905Y-8455476D02*
X2785952Y-8455476D01*
X2805000Y-8465000D01*
X2814524Y-8474524D01*
X2824048Y-8493571D01*
X2833571Y-8531667D01*
X2833571Y-8579286D01*
X2824048Y-8617381D01*
X2814524Y-8636429D01*
X2805000Y-8645952D01*
X2785952Y-8655476D01*
X2766905Y-8655476D01*
X2747857Y-8645952D01*
X2738333Y-8636429D01*
X2728810Y-8617381D01*
X2719286Y-8579286D01*
X2719286Y-8531667D01*
X2728810Y-8493571D01*
X2738333Y-8474524D01*
X2747857Y-8465000D01*
X2766905Y-8455476D01*
X2957381Y-8455476D02*
X2976428Y-8455476D01*
X2995476Y-8465000D01*
X3005000Y-8474524D01*
X3014524Y-8493571D01*
X3024048Y-8531667D01*
X3024048Y-8579286D01*
X3014524Y-8617381D01*
X3005000Y-8636429D01*
X2995476Y-8645952D01*
X2976428Y-8655476D01*
X2957381Y-8655476D01*
X2938333Y-8645952D01*
X2928809Y-8636429D01*
X2919286Y-8617381D01*
X2909762Y-8579286D01*
X2909762Y-8531667D01*
X2919286Y-8493571D01*
X2928809Y-8474524D01*
X2938333Y-8465000D01*
X2957381Y-8455476D01*
X3109762Y-8655476D02*
X3109762Y-8522143D01*
X3109762Y-8541190D02*
X3119286Y-8531667D01*
X3138333Y-8522143D01*
X3166905Y-8522143D01*
X3185952Y-8531667D01*
X3195476Y-8550714D01*
X3195476Y-8655476D01*
X3195476Y-8550714D02*
X3205000Y-8531667D01*
X3224048Y-8522143D01*
X3252619Y-8522143D01*
X3271667Y-8531667D01*
X3281190Y-8550714D01*
X3281190Y-8655476D01*
X3376428Y-8655476D02*
X3376428Y-8522143D01*
X3376428Y-8541190D02*
X3385952Y-8531667D01*
X3405000Y-8522143D01*
X3433571Y-8522143D01*
X3452619Y-8531667D01*
X3462143Y-8550714D01*
X3462143Y-8655476D01*
X3462143Y-8550714D02*
X3471667Y-8531667D01*
X3490714Y-8522143D01*
X3519286Y-8522143D01*
X3538333Y-8531667D01*
X3547857Y-8550714D01*
X3547857Y-8655476D01*
X3938333Y-8445952D02*
X3766905Y-8703095D01*
X4195476Y-8455476D02*
X4214524Y-8455476D01*
X4233571Y-8465000D01*
X4243095Y-8474524D01*
X4252619Y-8493571D01*
X4262143Y-8531667D01*
X4262143Y-8579286D01*
X4252619Y-8617381D01*
X4243095Y-8636429D01*
X4233571Y-8645952D01*
X4214524Y-8655476D01*
X4195476Y-8655476D01*
X4176428Y-8645952D01*
X4166905Y-8636429D01*
X4157381Y-8617381D01*
X4147857Y-8579286D01*
X4147857Y-8531667D01*
X4157381Y-8493571D01*
X4166905Y-8474524D01*
X4176428Y-8465000D01*
X4195476Y-8455476D01*
X4347857Y-8636429D02*
X4357381Y-8645952D01*
X4347857Y-8655476D01*
X4338333Y-8645952D01*
X4347857Y-8636429D01*
X4347857Y-8655476D01*
X4547857Y-8655476D02*
X4433571Y-8655476D01*
X4490714Y-8655476D02*
X4490714Y-8455476D01*
X4471667Y-8484048D01*
X4452619Y-8503095D01*
X4433571Y-8512619D01*
X4624048Y-8474524D02*
X4633571Y-8465000D01*
X4652619Y-8455476D01*
X4700238Y-8455476D01*
X4719286Y-8465000D01*
X4728810Y-8474524D01*
X4738333Y-8493571D01*
X4738333Y-8512619D01*
X4728810Y-8541190D01*
X4614524Y-8655476D01*
X4738333Y-8655476D01*
X4909762Y-8455476D02*
X4871667Y-8455476D01*
X4852619Y-8465000D01*
X4843095Y-8474524D01*
X4824048Y-8503095D01*
X4814524Y-8541190D01*
X4814524Y-8617381D01*
X4824048Y-8636429D01*
X4833571Y-8645952D01*
X4852619Y-8655476D01*
X4890714Y-8655476D01*
X4909762Y-8645952D01*
X4919286Y-8636429D01*
X4928810Y-8617381D01*
X4928810Y-8569762D01*
X4919286Y-8550714D01*
X4909762Y-8541190D01*
X4890714Y-8531667D01*
X4852619Y-8531667D01*
X4833571Y-8541190D01*
X4824048Y-8550714D01*
X4814524Y-8569762D01*
X5052619Y-8455476D02*
X5071667Y-8455476D01*
X5090714Y-8465000D01*
X5100238Y-8474524D01*
X5109762Y-8493571D01*
X5119286Y-8531667D01*
X5119286Y-8579286D01*
X5109762Y-8617381D01*
X5100238Y-8636429D01*
X5090714Y-8645952D01*
X5071667Y-8655476D01*
X5052619Y-8655476D01*
X5033571Y-8645952D01*
X5024048Y-8636429D01*
X5014524Y-8617381D01*
X5005000Y-8579286D01*
X5005000Y-8531667D01*
X5014524Y-8493571D01*
X5024048Y-8474524D01*
X5033571Y-8465000D01*
X5052619Y-8455476D01*
X5195476Y-8455476D02*
X5195476Y-8493571D01*
X5271667Y-8455476D02*
X5271667Y-8493571D01*
X5566905Y-8731667D02*
X5557381Y-8722143D01*
X5538333Y-8693571D01*
X5528810Y-8674524D01*
X5519286Y-8645952D01*
X5509762Y-8598333D01*
X5509762Y-8560238D01*
X5519286Y-8512619D01*
X5528810Y-8484048D01*
X5538333Y-8465000D01*
X5557381Y-8436429D01*
X5566905Y-8426905D01*
X5633571Y-8474524D02*
X5643095Y-8465000D01*
X5662143Y-8455476D01*
X5709762Y-8455476D01*
X5728809Y-8465000D01*
X5738333Y-8474524D01*
X5747857Y-8493571D01*
X5747857Y-8512619D01*
X5738333Y-8541190D01*
X5624048Y-8655476D01*
X5747857Y-8655476D01*
X5985952Y-8655476D02*
X5985952Y-8455476D01*
X6071667Y-8655476D02*
X6071667Y-8550714D01*
X6062143Y-8531667D01*
X6043095Y-8522143D01*
X6014524Y-8522143D01*
X5995476Y-8531667D01*
X5985952Y-8541190D01*
X6195476Y-8655476D02*
X6176428Y-8645952D01*
X6166905Y-8636429D01*
X6157381Y-8617381D01*
X6157381Y-8560238D01*
X6166905Y-8541190D01*
X6176428Y-8531667D01*
X6195476Y-8522143D01*
X6224048Y-8522143D01*
X6243095Y-8531667D01*
X6252619Y-8541190D01*
X6262143Y-8560238D01*
X6262143Y-8617381D01*
X6252619Y-8636429D01*
X6243095Y-8645952D01*
X6224048Y-8655476D01*
X6195476Y-8655476D01*
X6376428Y-8655476D02*
X6357381Y-8645952D01*
X6347857Y-8626905D01*
X6347857Y-8455476D01*
X6528809Y-8645952D02*
X6509762Y-8655476D01*
X6471667Y-8655476D01*
X6452619Y-8645952D01*
X6443095Y-8626905D01*
X6443095Y-8550714D01*
X6452619Y-8531667D01*
X6471667Y-8522143D01*
X6509762Y-8522143D01*
X6528809Y-8531667D01*
X6538333Y-8550714D01*
X6538333Y-8569762D01*
X6443095Y-8588810D01*
X6614524Y-8645952D02*
X6633571Y-8655476D01*
X6671667Y-8655476D01*
X6690714Y-8645952D01*
X6700238Y-8626905D01*
X6700238Y-8617381D01*
X6690714Y-8598333D01*
X6671667Y-8588810D01*
X6643095Y-8588810D01*
X6624048Y-8579286D01*
X6614524Y-8560238D01*
X6614524Y-8550714D01*
X6624048Y-8531667D01*
X6643095Y-8522143D01*
X6671667Y-8522143D01*
X6690714Y-8531667D01*
X6766905Y-8731667D02*
X6776428Y-8722143D01*
X6795476Y-8693571D01*
X6805000Y-8674524D01*
X6814524Y-8645952D01*
X6824048Y-8598333D01*
X6824048Y-8560238D01*
X6814524Y-8512619D01*
X6805000Y-8484048D01*
X6795476Y-8465000D01*
X6776428Y-8436429D01*
X6766905Y-8426905D01*
X7128809Y-8731667D02*
X7119286Y-8722143D01*
X7100238Y-8693571D01*
X7090714Y-8674524D01*
X7081190Y-8645952D01*
X7071667Y-8598333D01*
X7071667Y-8560238D01*
X7081190Y-8512619D01*
X7090714Y-8484048D01*
X7100238Y-8465000D01*
X7119286Y-8436429D01*
X7128809Y-8426905D01*
X7205000Y-8522143D02*
X7205000Y-8655476D01*
X7205000Y-8541190D02*
X7214524Y-8531667D01*
X7233571Y-8522143D01*
X7262143Y-8522143D01*
X7281190Y-8531667D01*
X7290714Y-8550714D01*
X7290714Y-8655476D01*
X7414524Y-8655476D02*
X7395476Y-8645952D01*
X7385952Y-8636429D01*
X7376428Y-8617381D01*
X7376428Y-8560238D01*
X7385952Y-8541190D01*
X7395476Y-8531667D01*
X7414524Y-8522143D01*
X7443095Y-8522143D01*
X7462143Y-8531667D01*
X7471667Y-8541190D01*
X7481190Y-8560238D01*
X7481190Y-8617381D01*
X7471667Y-8636429D01*
X7462143Y-8645952D01*
X7443095Y-8655476D01*
X7414524Y-8655476D01*
X7538333Y-8522143D02*
X7614524Y-8522143D01*
X7566905Y-8455476D02*
X7566905Y-8626905D01*
X7576428Y-8645952D01*
X7595476Y-8655476D01*
X7614524Y-8655476D01*
X7833571Y-8522143D02*
X7833571Y-8722143D01*
X7833571Y-8531667D02*
X7852619Y-8522143D01*
X7890714Y-8522143D01*
X7909762Y-8531667D01*
X7919286Y-8541190D01*
X7928809Y-8560238D01*
X7928809Y-8617381D01*
X7919286Y-8636429D01*
X7909762Y-8645952D01*
X7890714Y-8655476D01*
X7852619Y-8655476D01*
X7833571Y-8645952D01*
X8043095Y-8655476D02*
X8024048Y-8645952D01*
X8014524Y-8626905D01*
X8014524Y-8455476D01*
X8205000Y-8655476D02*
X8205000Y-8550714D01*
X8195476Y-8531667D01*
X8176428Y-8522143D01*
X8138333Y-8522143D01*
X8119286Y-8531667D01*
X8205000Y-8645952D02*
X8185952Y-8655476D01*
X8138333Y-8655476D01*
X8119286Y-8645952D01*
X8109762Y-8626905D01*
X8109762Y-8607857D01*
X8119286Y-8588810D01*
X8138333Y-8579286D01*
X8185952Y-8579286D01*
X8205000Y-8569762D01*
X8271667Y-8522143D02*
X8347857Y-8522143D01*
X8300238Y-8455476D02*
X8300238Y-8626905D01*
X8309762Y-8645952D01*
X8328809Y-8655476D01*
X8347857Y-8655476D01*
X8490714Y-8645952D02*
X8471667Y-8655476D01*
X8433571Y-8655476D01*
X8414524Y-8645952D01*
X8405000Y-8626905D01*
X8405000Y-8550714D01*
X8414524Y-8531667D01*
X8433571Y-8522143D01*
X8471667Y-8522143D01*
X8490714Y-8531667D01*
X8500238Y-8550714D01*
X8500238Y-8569762D01*
X8405000Y-8588810D01*
X8671667Y-8655476D02*
X8671667Y-8455476D01*
X8671667Y-8645952D02*
X8652619Y-8655476D01*
X8614524Y-8655476D01*
X8595476Y-8645952D01*
X8585952Y-8636429D01*
X8576429Y-8617381D01*
X8576429Y-8560238D01*
X8585952Y-8541190D01*
X8595476Y-8531667D01*
X8614524Y-8522143D01*
X8652619Y-8522143D01*
X8671667Y-8531667D01*
X8747857Y-8731667D02*
X8757381Y-8722143D01*
X8776429Y-8693571D01*
X8785952Y-8674524D01*
X8795476Y-8645952D01*
X8805000Y-8598333D01*
X8805000Y-8560238D01*
X8795476Y-8512619D01*
X8785952Y-8484048D01*
X8776429Y-8465000D01*
X8757381Y-8436429D01*
X8747857Y-8426905D01*
M02*
